<?xml version="1.0" encoding="UTF-8"?>
<!-- Generator: visioncortex VTracer 0.6.4 -->
<svg version="1.1" xmlns="http://www.w3.org/2000/svg" width="600" height="600">
<path d="M0 0 C1.38323708 -0.0049926 1.38323708 -0.0049926 2.79441833 -0.01008606 C4.73476672 -0.01511427 6.67512362 -0.01749567 8.61547852 -0.01733398 C11.52700715 -0.01950767 14.43814813 -0.03767265 17.34960938 -0.05664062 C28.71539029 -0.08962905 39.74860319 0.51378819 50.99609375 2.16796875 C50.99609375 2.82796875 50.99609375 3.48796875 50.99609375 4.16796875 C50.26310059 4.26295654 49.53010742 4.35794434 48.77490234 4.45581055 C18.1100578 8.48562361 -10.45643989 15.2023286 -39.00390625 27.16796875 C-35.11528735 27.26632981 -35.11528735 27.26632981 -31.75195312 26.68286133 C-27.83127665 26.14425355 -23.98431752 25.97242857 -20.03515625 25.9296875 C-19.2858786 25.91989365 -18.53660095 25.91009979 -17.76461792 25.90000916 C6.3933712 25.64950334 28.12673858 27.9502896 50.99609375 36.16796875 C52.82914063 36.80992188 52.82914063 36.80992188 54.69921875 37.46484375 C69.8952477 43.15498675 87.34903869 50.84005582 99.99609375 61.16796875 C99.99609375 61.82796875 99.99609375 62.48796875 99.99609375 63.16796875 C99.15175781 63.09578125 98.30742188 63.02359375 97.4375 62.94921875 C63.00210784 60.45239273 28.12926096 62.26230906 -6.00390625 67.16796875 C-5.03453125 67.50828125 -4.06515625 67.84859375 -3.06640625 68.19921875 C7.02970254 71.81896247 16.53067871 76.13603198 25.99609375 81.16796875 C27.13433594 81.7609375 28.27257812 82.35390625 29.4453125 82.96484375 C48.89513556 93.53687301 66.72585591 108.18931781 81.99609375 124.16796875 C82.99380281 125.17025446 83.99307718 126.17099445 84.99609375 127.16796875 C79.91855581 126.57723026 75.11338248 125.4791636 70.16723633 124.19995117 C58.79406996 121.2803189 47.40894817 119.10025493 35.80859375 117.35546875 C35.12275208 117.25069214 34.4369104 117.14591553 33.73028564 117.03796387 C24.499931 115.63978577 15.31710574 114.69543617 5.99609375 114.16796875 C6.98867188 114.70164062 7.98125 115.2353125 9.00390625 115.78515625 C38.4668495 131.85120536 65.6905562 155.4604919 85.99609375 182.16796875 C86.94797176 183.36791194 87.9026023 184.56567469 88.859375 185.76171875 C89.86366971 187.02182591 90.86757968 188.28223982 91.87109375 189.54296875 C92.33652588 190.12675293 92.80195801 190.71053711 93.28149414 191.31201172 C95.77314278 194.47738753 98.01260021 197.66073183 99.99609375 201.16796875 C96.36820036 200.05445692 92.89841693 198.72551628 89.42578125 197.20703125 C65.28601741 186.66750922 40.22520246 178.72358796 14.87109375 171.66796875 C14.14853394 171.46623047 13.42597412 171.26449219 12.68151855 171.05664062 C1.86433858 168.05362347 -9.02800299 165.52052036 -20.00390625 163.16796875 C-19.226521 163.73547852 -18.44913574 164.30298828 -17.64819336 164.88769531 C-2.00796808 176.35416039 11.92134534 188.93981497 23.99609375 204.16796875 C24.82753906 205.18246094 25.65898437 206.19695312 26.515625 207.2421875 C62.99609375 252.07980314 62.99609375 252.07980314 62.99609375 266.16796875 C59.35240177 264.85205703 56.497304 263.24726957 53.38671875 260.94921875 C17.97842057 235.65384411 -25.73037825 218.99178503 -66.00390625 203.16796875 C-66.33390625 203.49796875 -66.66390625 203.82796875 -67.00390625 204.16796875 C-66.48183594 204.64363281 -65.95976562 205.11929688 -65.421875 205.609375 C-35.23564582 234.31536877 -20.59967963 278.08894579 -14.00390625 318.16796875 C-14.00390625 318.82796875 -14.00390625 319.48796875 -14.00390625 320.16796875 C-14.66390625 320.16796875 -15.32390625 320.16796875 -16.00390625 320.16796875 C-17.34375 318.62109375 -17.34375 318.62109375 -18.94140625 316.41796875 C-26.65778927 306.27554239 -35.71203071 297.36762143 -44.69140625 288.35546875 C-45.58230957 287.45989258 -46.47321289 286.56431641 -47.39111328 285.64160156 C-52.43596947 280.60894689 -57.59539714 275.80482188 -63.00390625 271.16796875 C-64.61158998 269.71351358 -66.2163034 268.2557598 -67.81640625 266.79296875 C-72.53233956 262.54148342 -77.40156083 258.51749796 -82.33740234 254.52539062 C-84.24174737 252.97423939 -86.13313756 251.40807946 -88.0234375 249.83984375 C-96.55245586 242.76805917 -105.16038061 235.8429081 -114.00390625 229.16796875 C-113.78774658 229.67956543 -113.57158691 230.19116211 -113.34887695 230.71826172 C-108.34205085 242.65751399 -103.81152504 254.50919916 -101.00390625 267.16796875 C-100.84019531 267.89838379 -100.67648437 268.62879883 -100.5078125 269.38134766 C-94.98396576 295.60250029 -96.72840961 324.90095479 -101.00390625 351.16796875 C-104.08441141 348.31057448 -104.93533986 345.87709624 -106.25390625 341.85546875 C-116.01790989 314.32123937 -132.30325452 288.61102883 -148.00390625 264.16796875 C-146.32709428 279.96357403 -143.49568615 293.9240812 -137.3125 308.55859375 C-113.92820712 364.01526184 -111.68146046 431.94831872 -134.31640625 487.85546875 C-139.84863066 501.040552 -146.68050296 513.53735769 -155.00390625 525.16796875 C-155.39674805 525.71952637 -155.78958984 526.27108398 -156.19433594 526.83935547 C-161.44680488 534.17584183 -161.44680488 534.17584183 -164.00390625 537.16796875 C-164.66390625 537.16796875 -165.32390625 537.16796875 -166.00390625 537.16796875 C-164.75434404 534.02474011 -163.48186815 530.89154084 -162.19921875 527.76171875 C-155.14960596 510.47835858 -148.51314448 493.11137304 -149.00390625 474.16796875 C-149.34534668 474.73604248 -149.68678711 475.30411621 -150.03857422 475.8894043 C-156.82316805 487.13228316 -163.62774603 498.02840638 -172.00390625 508.16796875 C-172.42849121 508.6872998 -172.85307617 509.20663086 -173.29052734 509.74169922 C-196.97659762 538.65431443 -196.97659762 538.65431443 -206.00390625 543.16796875 C-205.3397402 539.01693092 -203.10595619 535.72359653 -201.00390625 532.16796875 C-187.98061876 509.44593148 -179.3436652 484.97811409 -175.00390625 459.16796875 C-175.91716675 460.0969397 -175.91716675 460.0969397 -176.84887695 461.04467773 C-179.16135774 463.39172214 -181.47863643 465.73382787 -183.79907227 468.07299805 C-184.79282451 469.07666383 -185.78475915 470.08213329 -186.7746582 471.08959961 C-207.30260101 491.97201172 -231.79164546 507.62168961 -257.12890625 522.04296875 C-257.88107422 522.47826904 -258.63324219 522.91356934 -259.40820312 523.36206055 C-261.23056921 524.37836382 -263.11371517 525.28418814 -265.00390625 526.16796875 C-265.99390625 525.83796875 -266.98390625 525.50796875 -268.00390625 525.16796875 C-267.14667969 524.39453125 -266.28945313 523.62109375 -265.40625 522.82421875 C-259.2221307 517.20755779 -253.35560998 511.59453898 -248.00390625 505.16796875 C-247.13636719 504.18828125 -246.26882812 503.20859375 -245.375 502.19921875 C-233.34552228 488.58649362 -223.00087096 473.93769493 -214.00390625 458.16796875 C-213.22811033 456.82017102 -212.4520647 455.47251699 -211.67578125 454.125 C-209.77264362 450.81299315 -207.88416861 447.49301037 -206.00390625 444.16796875 C-207.18919922 444.86019531 -207.18919922 444.86019531 -208.3984375 445.56640625 C-212.25172485 447.79470728 -216.12294396 449.98833452 -220.00390625 452.16796875 C-220.69452148 452.55839355 -221.38513672 452.94881836 -222.09667969 453.35107422 C-244.18564305 465.73983583 -267.70379379 474.24435524 -292.00390625 481.16796875 C-292.84099121 481.41192383 -293.67807617 481.65587891 -294.54052734 481.90722656 C-306.41735482 485.36348589 -306.41735482 485.36348589 -310.00390625 484.16796875 C-309.02333252 483.5649292 -309.02333252 483.5649292 -308.02294922 482.94970703 C-292.04238393 473.1005983 -276.45265963 463.19054465 -262.00390625 451.16796875 C-261.49424316 450.74854004 -260.98458008 450.32911133 -260.45947266 449.89697266 C-247.07523156 438.85072823 -234.62928231 426.92545193 -224.00390625 413.16796875 C-223.23046875 412.21148437 -222.45703125 411.255 -221.66015625 410.26953125 C-209.48673609 395.25841278 -209.48673609 395.25841278 -201.00390625 378.16796875 C-227.92887566 357.55694095 -261.10326146 345.18732465 -292.67358398 333.73291016 C-313.98314847 325.96548732 -332.14645041 315.3019032 -349.00390625 300.16796875 C-349.65617187 299.59949219 -350.3084375 299.03101563 -350.98046875 298.4453125 C-366.77412169 283.81185682 -376.40797701 262.46240102 -384.91577148 243.10400391 C-391.62912012 227.84233495 -397.31385537 216.83799148 -412.94140625 209.85546875 C-421.49358348 207.93559223 -429.25616308 209.03510433 -437.00390625 213.16796875 C-442.76519946 217.43829438 -447.26062009 222.08512874 -451.00390625 228.16796875 C-451.66390625 228.16796875 -452.32390625 228.16796875 -453.00390625 228.16796875 C-454.47485112 215.30713999 -453.74535036 206.78885244 -446.00390625 196.16796875 C-437.36814466 185.85008796 -437.36814466 185.85008796 -434.00390625 184.16796875 C-433.29251017 182.40933893 -433.29251017 182.40933893 -432.77734375 180.2578125 C-432.55449707 179.44038574 -432.33165039 178.62295898 -432.10205078 177.78076172 C-431.86341309 176.89791504 -431.62477539 176.01506836 -431.37890625 175.10546875 C-425.87350871 155.8795614 -417.08107162 139.44622436 -399.56640625 128.66796875 C-382.05488221 119.23868657 -361.35929228 120.46429784 -342.73730469 125.81982422 C-316.85363633 133.68747661 -292.78554794 147.06499872 -270.93774414 162.8671875 C-267.34111347 165.53744634 -267.34111347 165.53744634 -263.00390625 166.16796875 C-261.10954634 164.22211911 -261.10954634 164.22211911 -259.19140625 161.60546875 C-255.34205092 156.72626958 -251.28306026 152.17345723 -247.00390625 147.66796875 C-242.9725821 143.41286018 -239.08275225 139.14326959 -235.44140625 134.54296875 C-231.50033659 129.60005708 -227.15820257 125.20976215 -222.65551758 120.78808594 C-219.86161497 118.04041426 -217.15472646 115.29400771 -214.62890625 112.29296875 C-207.21628986 103.57989334 -198.81194488 95.32274914 -190.06640625 87.953125 C-187.83208272 86.01925028 -185.68575102 84.0014096 -183.53564453 81.97485352 C-176.88688032 75.72681794 -169.95477915 70.00935939 -162.70507812 64.47509766 C-161.07841203 63.22521673 -159.46872924 61.95665637 -157.86328125 60.6796875 C-113.52057856 25.7514531 -57.24514291 0.07428977 0 0 Z " fill="#3D2B93" transform="translate(473.00390625,34.83203125)"/>
<path d="M0 0 C1.22296783 0.00081573 1.22296783 0.00081573 2.47064209 0.00164795 C23.04783571 0.06460287 41.81597559 3.41420153 61.1875 10.375 C62.40953125 10.80296875 63.6315625 11.2309375 64.890625 11.671875 C80.08665395 17.362018 97.54044494 25.04708707 110.1875 35.375 C110.1875 36.035 110.1875 36.695 110.1875 37.375 C108.92099609 37.26671875 108.92099609 37.26671875 107.62890625 37.15625 C73.19351409 34.65942398 38.32066721 36.46934031 4.1875 41.375 C5.156875 41.7153125 6.12625 42.055625 7.125 42.40625 C17.22110879 46.02599372 26.72208496 50.34306323 36.1875 55.375 C37.32574219 55.96796875 38.46398437 56.5609375 39.63671875 57.171875 C59.08654181 67.74390426 76.91726216 82.39634906 92.1875 98.375 C93.18520906 99.37728571 94.18448343 100.3780257 95.1875 101.375 C90.10996206 100.78426151 85.30478873 99.68619485 80.35864258 98.40698242 C68.98547621 95.48735015 57.60035442 93.30728618 46 91.5625 C45.31415833 91.45772339 44.62831665 91.35294678 43.92169189 91.24499512 C34.69133725 89.84681702 25.50851199 88.90246742 16.1875 88.375 C17.18007813 88.90867187 18.17265625 89.44234375 19.1953125 89.9921875 C48.65825575 106.05823661 75.88196245 129.66752315 96.1875 156.375 C97.13937801 157.57494319 98.09400855 158.77270594 99.05078125 159.96875 C100.05507596 161.22885716 101.05898593 162.48927107 102.0625 163.75 C102.52793213 164.33378418 102.99336426 164.91756836 103.47290039 165.51904297 C105.96454903 168.68441878 108.20400646 171.86776308 110.1875 175.375 C106.55960661 174.26148817 103.08982318 172.93254753 99.6171875 171.4140625 C75.47742366 160.87454047 50.41660871 152.93061921 25.0625 145.875 C24.33994019 145.67326172 23.61738037 145.47152344 22.8729248 145.26367188 C12.05574483 142.26065472 1.16340326 139.72755161 -9.8125 137.375 C-9.03511475 137.94250977 -8.25772949 138.51001953 -7.45678711 139.09472656 C8.18343817 150.56119164 22.11275159 163.14684622 34.1875 178.375 C35.43466797 179.89673828 35.43466797 179.89673828 36.70703125 181.44921875 C73.1875 226.28683439 73.1875 226.28683439 73.1875 240.375 C69.54380802 239.05908828 66.68871025 237.45430082 63.578125 235.15625 C38.46687762 217.21699726 8.6827911 204.56294494 -19.5625 192.375 C-20.48713043 191.97576324 -21.41176086 191.57652649 -22.3644104 191.16519165 C-32.3906928 186.84830303 -42.45396629 182.66733575 -52.64727783 178.75996399 C-56.76914456 177.17927032 -60.84811706 175.53300125 -64.90625 173.79296875 C-72.23791111 170.70229437 -79.77534969 168.22192691 -87.3125 165.6875 C-89.47395419 164.95904744 -91.63494861 164.22933207 -93.7947998 163.49613953 C-95.73259982 162.83850261 -97.67191985 162.18534953 -99.61132812 161.5324707 C-102.1483015 160.61515902 -104.42589987 159.6069972 -106.8125 158.375 C-108.43164569 157.88738083 -110.05271806 157.40499668 -111.68408203 156.95996094 C-114.1944256 156.27003398 -116.68798645 155.53052045 -119.18359375 154.7890625 C-130.67246391 151.39563356 -142.14917319 148.11685606 -153.8125 145.375 C-154.66585938 145.17261719 -155.51921875 144.97023437 -156.3984375 144.76171875 C-162.1659544 143.43620171 -167.98491621 142.39891192 -173.8125 141.375 C-163.59717703 121.4011368 -149.70363309 102.92896918 -135.8125 85.375 C-135.08675781 84.45460938 -134.36101562 83.53421875 -133.61328125 82.5859375 C-125.22337822 72.1324497 -116.01049582 62.49426093 -106.5625 53 C-105.91337646 52.34620361 -105.26425293 51.69240723 -104.59545898 51.01879883 C-88.64089322 35.11688171 -70.47020754 22.0277295 -50.8359375 11.06640625 C-48.96152965 10.01780341 -47.10809272 8.92942144 -45.29296875 7.78125 C-42.500482 6.1981079 -39.81855717 5.25169904 -36.75 4.3125 C-35.72777344 3.99152344 -34.70554687 3.67054687 -33.65234375 3.33984375 C-22.4026061 0.51310397 -11.53317887 -0.02893891 0 0 Z " fill="#CD3873" transform="translate(462.8125,60.625)"/>
<path d="M0 0 C9.48787312 -0.41251622 18.12179911 2.27827257 27.15625 4.9296875 C31.26976147 6.07511651 35.39993828 7.05351775 39.5625 8 C45.82473454 9.43032004 51.94985157 11.10592053 58.0703125 13.0703125 C60.18808395 13.74235197 62.32070519 14.36818756 64.4609375 14.96484375 C68.55377573 16.16197635 72.48125248 17.65440648 76.45483398 19.19580078 C80.81868098 20.86260513 85.20583796 22.4173129 89.6423645 23.88130188 C92.42000003 24.79942371 95.19111311 25.73653821 97.96240234 26.6736145 C99.35021351 27.13711229 100.74100843 27.59178017 102.13476562 28.03707886 C110.73745698 30.79101749 116.71992755 33.43298565 122 41 C123.43524183 42.52296459 124.87241254 44.04411652 126.3125 45.5625 C149.92203331 71.81758373 171 117.57077963 171 153 C170.34 153 169.68 153 169 153 C167.66015625 151.453125 167.66015625 151.453125 166.0625 149.25 C158.34611698 139.10757364 149.29187554 130.19965268 140.3125 121.1875 C139.42159668 120.29192383 138.53069336 119.39634766 137.61279297 118.47363281 C132.56793678 113.44097814 127.40850911 108.63685313 122 104 C120.39231627 102.54554483 118.78760285 101.08779105 117.1875 99.625 C112.47156669 95.37351467 107.60234542 91.34952921 102.66650391 87.35742188 C100.76215888 85.80627064 98.87076869 84.24011071 96.98046875 82.671875 C88.45145039 75.60009042 79.84352564 68.67493935 71 62 C71.21615967 62.51159668 71.43231934 63.02319336 71.6550293 63.55029297 C76.6618554 75.48954524 81.19238121 87.34123041 84 100 C84.16371094 100.73041504 84.32742188 101.46083008 84.49609375 102.21337891 C90.01994049 128.43453154 88.27549664 157.73298604 84 184 C80.91949484 181.14260573 80.06856639 178.70912749 78.75 174.6875 C68.98599636 147.15327062 52.70065173 121.44306008 37 97 C38.67681197 112.79560528 41.5082201 126.75611245 47.69140625 141.390625 C71.07569913 196.84729309 73.32244579 264.78034997 50.6875 320.6875 C45.15527559 333.87258325 38.32340329 346.36938894 30 358 C29.6071582 358.55155762 29.21431641 359.10311523 28.80957031 359.67138672 C23.55710137 367.00787308 23.55710137 367.00787308 21 370 C20.34 370 19.68 370 19 370 C20.24956221 366.85677136 21.5220381 363.72357209 22.8046875 360.59375 C27.9661629 347.93507612 32.67794833 335.53511698 35 322 C35.66 322.33 36.32 322.66 37 323 C47.64661292 284.23805975 48.39298945 245.3060024 35 207 C34.77086914 206.33887207 34.54173828 205.67774414 34.30566406 204.99658203 C26.91809386 184.14733637 15.17473442 164.89861063 1 148 C0.09326758 146.90795246 -0.81295255 145.81547943 -1.71875 144.72265625 C-4.13775212 141.80828236 -6.56648612 138.9022645 -9 136 C-9.33 137.98 -9.66 139.96 -10 142 C-10.33 142 -10.66 142 -11 142 C-10.99214478 140.39729248 -10.99214478 140.39729248 -10.98413086 138.76220703 C-10.9658761 134.75521703 -10.95449398 130.74823062 -10.94506836 126.74121094 C-10.94007456 125.01496765 -10.93327721 123.28872851 -10.92456055 121.5625 C-10.88068714 112.64329523 -10.84444989 103.86225047 -12 95 C-9.56193013 97.2565546 -7.87564576 99.60003159 -6.14453125 102.4296875 C-5.60828125 103.30141602 -5.07203125 104.17314453 -4.51953125 105.07128906 C-3.95621094 105.99651367 -3.39289063 106.92173828 -2.8125 107.875 C-1.94238281 109.29377441 -1.94238281 109.29377441 -1.0546875 110.74121094 C0.10361604 112.63022601 1.26038506 114.52018297 2.41552734 116.41113281 C3.75484452 118.59944088 5.10191614 120.78239576 6.45703125 122.9609375 C10.14030697 128.89080013 13.6834715 134.8578765 17 141 C17.87461698 142.60437553 18.74965155 144.20852344 19.625 145.8125 C20.11742187 146.72128906 20.60984375 147.63007813 21.1171875 148.56640625 C22.64670215 151.35570786 24.19650658 154.1308415 25.7578125 156.90234375 C26.24942871 157.78108154 26.74104492 158.65981934 27.24755859 159.56518555 C28.23169235 161.3238009 29.22140352 163.07930939 30.21728516 164.83129883 C32.82409074 169.50681632 34.78657295 173.77944178 36 179 C36.33 179 36.66 179 37 179 C38.78067424 167.94289977 39.3612324 157.18595999 39.3125 146 C39.31167419 145.1941748 39.31084839 144.38834961 39.30999756 143.55810547 C39.28038061 130.95063755 38.5044416 118.68277729 36.3671875 106.23730469 C36.02954845 104.18004123 35.77626051 102.10940134 35.53125 100.0390625 C35.33015625 98.34910156 35.33015625 98.34910156 35.125 96.625 C34.97417969 95.28308594 34.97417969 95.28308594 34.8203125 93.9140625 C32.60082648 86.02960264 27.24987068 79.22407228 22.5625 72.625 C21.95704346 71.76720947 21.35158691 70.90941895 20.7277832 70.02563477 C6.38963686 49.41959518 6.38963686 49.41959518 -9.69140625 30.18359375 C-13.01970052 26.56509398 -13.01970052 26.56509398 -12.92578125 23.87109375 C-11.57782434 19.69072106 -9.34728875 16.17071022 -7.0625 12.4375 C-6.1564713 10.93684992 -5.25148763 9.43556829 -4.34765625 7.93359375 C-3.94554932 7.27415771 -3.54344238 6.61472168 -3.12915039 5.93530273 C-1.99653289 3.99405756 -0.98287139 2.0205811 0 0 Z " fill="#7E2985" transform="translate(288,202)"/>
<path d="M0 0 C2.89278055 2.47952619 4.03997573 5.02281987 5.453125 8.53125 C6.12952026 10.19764526 6.12952026 10.19764526 6.81958008 11.89770508 C7.29161865 13.0864624 7.76365723 14.27521973 8.25 15.5 C8.73944092 16.72162842 9.22888184 17.94325684 9.7331543 19.2019043 C11.16914383 22.79590361 12.58590139 26.39732934 14 30 C14.3623877 30.91604004 14.72477539 31.83208008 15.09814453 32.77587891 C20.01207408 45.27257417 23.67209613 57.99696862 27 71 C30.74346454 54.05875992 34.20591293 37.12569708 37 20 C52.34084 35.25967154 64.07298627 51.79590258 74 71 C74.32838867 71.62551758 74.65677734 72.25103516 74.99511719 72.89550781 C83.09555156 88.49540389 88.16569336 105.69476158 91 123 C91.30550781 124.50626953 91.30550781 124.50626953 91.6171875 126.04296875 C96.64484988 153.76398395 92.82024093 184.44973163 84 211 C83.67 211 83.34 211 83 211 C83 204.73 83 198.46 83 192 C81.76636719 194.04767578 81.76636719 194.04767578 80.5078125 196.13671875 C74.1746815 206.5641684 67.78075972 216.5811856 60 226 C59.57541504 226.51933105 59.15083008 227.03866211 58.71337891 227.57373047 C35.02730863 256.48634568 35.02730863 256.48634568 26 261 C26.66416605 256.84896217 28.89795006 253.55562778 31 250 C44.02328749 227.27796273 52.66024105 202.81014534 57 177 C56.39115967 177.61931396 55.78231934 178.23862793 55.1550293 178.87670898 C52.84254851 181.22375339 50.52526982 183.56585912 48.20483398 185.9050293 C47.21108174 186.90869508 46.2191471 187.91416454 45.22924805 188.92163086 C24.70130524 209.80404297 0.21226079 225.45372086 -25.125 239.875 C-26.25325195 240.52795044 -26.25325195 240.52795044 -27.40429688 241.1940918 C-29.22666296 242.21039507 -31.10980892 243.11621939 -33 244 C-33.99 243.67 -34.98 243.34 -36 243 C-34.71416016 241.83984375 -34.71416016 241.83984375 -33.40234375 240.65625 C-27.21822445 235.03958904 -21.35170373 229.42657023 -16 223 C-15.13246094 222.0203125 -14.26492187 221.040625 -13.37109375 220.03125 C-1.34161603 206.41852487 9.00303529 191.76972618 18 176 C18.77579592 174.65220227 19.55184155 173.30454824 20.328125 171.95703125 C22.23126263 168.6450244 24.11973764 165.32504162 26 162 C24.81470703 162.69222656 24.81470703 162.69222656 23.60546875 163.3984375 C19.7521814 165.62673853 15.88096229 167.82036577 12 170 C11.30938477 170.3904248 10.61876953 170.78084961 9.90722656 171.18310547 C-12.1817368 183.57186708 -35.69988754 192.07638649 -60 199 C-60.83708496 199.24395508 -61.67416992 199.48791016 -62.53662109 199.73925781 C-74.41344857 203.19551714 -74.41344857 203.19551714 -78 202 C-77.34628418 201.59797363 -76.69256836 201.19594727 -76.01904297 200.78173828 C-60.03847768 190.93262955 -44.44875338 181.0225759 -30 169 C-29.49033691 168.58057129 -28.98067383 168.16114258 -28.45556641 167.72900391 C-15.07132531 156.68275948 -2.62537606 144.75748318 8 131 C8.7734375 130.04351562 9.546875 129.08703125 10.34375 128.1015625 C22.51717016 113.09044403 22.51717016 113.09044403 31 96 C4.07294542 75.38737601 -29.10020847 63.02458251 -60.6706543 51.56420898 C-74.24724752 46.61818722 -88.39669454 40.76114749 -100 32 C-100 31.67 -100 31.34 -100 31 C-99.44763672 30.96559814 -98.89527344 30.93119629 -98.32617188 30.89575195 C-72.17020445 29.14858967 -49.53345411 21.30191441 -31 2 C-28 3 -28 3 -27.17211914 4.61962891 C-26.96192139 5.31491699 -26.75172363 6.01020508 -26.53515625 6.7265625 C-26.29450439 7.50346436 -26.05385254 8.28036621 -25.8059082 9.08081055 C-25.5605835 9.92039307 -25.31525879 10.75997559 -25.0625 11.625 C-24.80235107 12.48585205 -24.54220215 13.3467041 -24.27416992 14.23364258 C-23.50025111 16.81807686 -22.74665201 19.40757131 -22 22 C-21.79697266 22.69625488 -21.59394531 23.39250977 -21.38476562 24.10986328 C-19.11360445 31.96529179 -17.34725207 39.84889521 -15.95043945 47.89916992 C-15.33347982 51.55908697 -15.33347982 51.55908697 -14 55 C-13.77532169 56.53668865 -13.59203195 58.07968054 -13.4375 59.625 C-13.35371094 60.44226563 -13.26992187 61.25953125 -13.18359375 62.1015625 C-13.12300781 62.72804688 -13.06242187 63.35453125 -13 64 C-5.75089828 42.78746465 -0.89825978 22.45649461 0 0 Z " fill="#A20741" transform="translate(241,317)"/>
<path d="M0 0 C0.6695874 0.45310547 1.3391748 0.90621094 2.02905273 1.37304688 C4.94342379 3.39656383 6.88486902 4.95230353 8.875 7.9375 C8.48755615 8.35 8.1001123 8.7625 7.70092773 9.1875 C4.59650996 12.4954332 1.49612819 15.8071185 -1.59765625 19.125 C-2.18812744 19.75792969 -2.77859863 20.39085937 -3.38696289 21.04296875 C-5.69742262 23.56146397 -7.93598169 26.13858764 -10.16796875 28.7265625 C-28.60846167 49.55953454 -48.56235839 72.02566029 -76.125 79.9375 C-76.79917969 80.13730469 -77.47335938 80.33710938 -78.16796875 80.54296875 C-88.86773017 82.70000648 -98.62168815 80.27498112 -107.75 74.6875 C-114.3343133 70.25468062 -119.89419765 65.7647989 -124.5625 59.3125 C-128.05434699 54.63278725 -131.82796707 52.26350339 -137.125 49.9375 C-138.094375 49.504375 -139.06375 49.07125 -140.0625 48.625 C-148.61467723 46.70512348 -156.37725683 47.80463558 -164.125 51.9375 C-169.88629321 56.20782563 -174.38171384 60.85465999 -178.125 66.9375 C-178.785 66.9375 -179.445 66.9375 -180.125 66.9375 C-181.59594487 54.07667124 -180.86644411 45.55838369 -173.125 34.9375 C-164.48923841 24.61961921 -164.48923841 24.61961921 -161.125 22.9375 C-160.41360392 21.17887018 -160.41360392 21.17887018 -159.8984375 19.02734375 C-159.67559082 18.20991699 -159.45274414 17.39249023 -159.22314453 16.55029297 C-158.98450684 15.66744629 -158.74586914 14.78459961 -158.5 13.875 C-152.99460246 -5.35090735 -144.20216537 -21.78424439 -126.6875 -32.5625 C-85.62410411 -54.67355932 -33.48521602 -22.72251935 0 0 Z " fill="#EE8D59" transform="translate(200.125,196.0625)"/>
<path d="M0 0 C1.38323708 -0.0049926 1.38323708 -0.0049926 2.79441833 -0.01008606 C4.73476672 -0.01511427 6.67512362 -0.01749567 8.61547852 -0.01733398 C11.52700715 -0.01950767 14.43814813 -0.03767265 17.34960938 -0.05664062 C28.71539029 -0.08962905 39.74860319 0.51378819 50.99609375 2.16796875 C50.99609375 2.82796875 50.99609375 3.48796875 50.99609375 4.16796875 C50.20025879 4.27866699 49.40442383 4.38936523 48.58447266 4.50341797 C44.92958162 5.01356325 41.27534123 5.52823459 37.62109375 6.04296875 C36.36941406 6.21699219 35.11773437 6.39101563 33.828125 6.5703125 C27.55282625 7.45739662 21.34208506 8.41062122 15.15771484 9.80517578 C12.73881951 10.21114805 10.44438395 10.22760452 7.99609375 10.16796875 C10.94534314 8.54690327 13.63416369 7.68353607 16.93359375 7.04296875 C17.76761719 6.87539063 18.60164063 6.7078125 19.4609375 6.53515625 C22.01067394 6.16585698 24.42368442 6.10354347 26.99609375 6.16796875 C26.99609375 5.50796875 26.99609375 4.84796875 26.99609375 4.16796875 C-28.81685777 12.60715317 -81.35047876 30.73619241 -125.52734375 67.15625 C-127.86363028 69.05402218 -130.2508949 70.8679583 -132.66015625 72.67163086 C-144.61325219 81.66640603 -155.08287766 92.11352029 -165.5612793 102.76171875 C-169.67827145 106.92802448 -173.87137723 110.88845766 -178.36401367 114.64916992 C-180.23814883 116.26633443 -180.23814883 116.26633443 -182.00390625 119.16796875 C-182.66390625 119.16796875 -183.32390625 119.16796875 -184.00390625 119.16796875 C-184.24238281 119.72742188 -184.48085938 120.286875 -184.7265625 120.86328125 C-186.2898214 123.68384012 -188.21971776 125.7039751 -190.44140625 128.04296875 C-195.87841109 133.92588621 -200.80428079 140.11160809 -205.68212891 146.4609375 C-206.89108457 148.02226333 -208.1240619 149.56491245 -209.359375 151.10546875 C-217.26274893 161.06080744 -224.11194601 171.71821626 -231.11328125 182.31689453 C-255.21997016 218.66993083 -285.62298064 263.32918358 -330.31640625 275.48046875 C-343.44084528 277.92498452 -356.2871991 276.24413238 -367.94140625 269.66796875 C-372.5653676 266.36756331 -374.51019103 261.99985063 -376.71484375 256.875 C-377.78029588 254.21895412 -377.78029588 254.21895412 -379.41577148 252.83154297 C-381.44833229 250.70243161 -382.45269334 248.5064339 -383.703125 245.84375 C-384.18974609 244.81572266 -384.67636719 243.78769531 -385.17773438 242.72851562 C-385.67724609 241.65666016 -386.17675781 240.58480469 -386.69140625 239.48046875 C-387.20251953 238.39701172 -387.71363281 237.31355469 -388.24023438 236.19726562 C-389.50056392 233.52348237 -390.75485813 230.84703594 -392.00390625 228.16796875 C-388.06816484 228.16796875 -387.04219085 229.91705123 -384.234375 232.4375 C-374.83429769 239.73037959 -364.6822566 242.26403739 -353.00390625 241.16796875 C-336.35429204 237.79327962 -323.10317072 228.82725997 -311.00390625 217.16796875 C-309.71842037 216.05661243 -308.42692449 214.95216171 -307.12890625 213.85546875 C-299.54855342 207.24380198 -292.41804851 200.00758234 -285.90234375 192.34765625 C-283.88390731 190.03019219 -281.8002547 187.78562245 -279.70239258 185.5402832 C-273.10467728 178.47576291 -266.94780258 171.14265617 -260.94140625 163.56640625 C-255.94705609 157.34183013 -250.64237832 151.51066536 -245.15966797 145.72021484 C-241.75584498 142.10681269 -238.52504611 138.43869056 -235.44140625 134.54296875 C-231.50033659 129.60005708 -227.15820257 125.20976215 -222.65551758 120.78808594 C-219.86161497 118.04041426 -217.15472646 115.29400771 -214.62890625 112.29296875 C-207.21628986 103.57989334 -198.81194488 95.32274914 -190.06640625 87.953125 C-187.83208272 86.01925028 -185.68575102 84.0014096 -183.53564453 81.97485352 C-176.88688032 75.72681794 -169.95477915 70.00935939 -162.70507812 64.47509766 C-161.07841203 63.22521673 -159.46872924 61.95665637 -157.86328125 60.6796875 C-113.52057856 25.7514531 -57.24514291 0.07428977 0 0 Z " fill="#6C30B8" transform="translate(473.00390625,34.83203125)"/>
<path d="M0 0 C1.22296783 0.00081573 1.22296783 0.00081573 2.47064209 0.00164795 C23.04783571 0.06460287 41.81597559 3.41420153 61.1875 10.375 C62.40953125 10.80296875 63.6315625 11.2309375 64.890625 11.671875 C80.08665395 17.362018 97.54044494 25.04708707 110.1875 35.375 C110.1875 36.035 110.1875 36.695 110.1875 37.375 C109.34316406 37.3028125 108.49882813 37.230625 107.62890625 37.15625 C73.19351409 34.65942398 38.32066721 36.46934031 4.1875 41.375 C5.156875 41.7153125 6.12625 42.055625 7.125 42.40625 C17.22110879 46.02599372 26.72208496 50.34306323 36.1875 55.375 C37.32574219 55.96796875 38.46398437 56.5609375 39.63671875 57.171875 C59.08654181 67.74390426 76.91726216 82.39634906 92.1875 98.375 C93.18520906 99.37728571 94.18448343 100.3780257 95.1875 101.375 C90.11254121 100.78456158 85.30970846 99.68824753 80.36645508 98.40795898 C63.81676335 94.16502499 47.10623137 91.56251857 30.1875 89.375 C29.34856201 89.2658728 28.50962402 89.15674561 27.64526367 89.04431152 C-21.46083746 82.70412858 -70.75361435 80.3644297 -120.10400391 85.12109375 C-125.00327197 85.58037253 -129.90811675 85.97468564 -134.8125 86.375 C-133.28859791 82.30548394 -131.61213341 79.7450053 -128.625 76.5625 C-125.88588656 73.62191062 -123.1910715 70.66309772 -120.5703125 67.6171875 C-116.53207831 62.98533561 -112.22974702 58.64519767 -107.875 54.3125 C-106.73514648 53.1668457 -106.73514648 53.1668457 -105.57226562 51.99804688 C-89.27236137 35.72598191 -70.92197369 22.27993928 -50.8359375 11.06640625 C-48.96152965 10.01780341 -47.10809272 8.92942144 -45.29296875 7.78125 C-42.500482 6.1981079 -39.81855717 5.25169904 -36.75 4.3125 C-35.72777344 3.99152344 -34.70554687 3.67054687 -33.65234375 3.33984375 C-22.4026061 0.51310397 -11.53317887 -0.02893891 0 0 Z " fill="#EE8D59" transform="translate(462.8125,60.625)"/>
<path d="M0 0 C5.32121421 2.41098493 9.53723247 6.29419157 14 10 C15.15628906 10.94939453 15.15628906 10.94939453 16.3359375 11.91796875 C22.33619702 17.02345272 27.21696793 22.75475187 32 29 C32.60714844 29.77988281 33.21429688 30.55976563 33.83984375 31.36328125 C44.70959597 46.02881997 51.20491502 62.87818974 53 81 C53.10828125 81.886875 53.2165625 82.77375 53.328125 83.6875 C54.68160504 102.8823079 31.8613143 125.80575898 19.9296875 139.66015625 C0.80587421 161.5970629 0.80587421 161.5970629 -6 165 C-5.33583395 160.84896217 -3.10204994 157.55562778 -1 154 C12.02328749 131.27796273 20.66024105 106.81014534 25 81 C24.39115967 81.61931396 23.78231934 82.23862793 23.1550293 82.87670898 C20.84254851 85.22375339 18.52526982 87.56585912 16.20483398 89.9050293 C15.21108174 90.90869508 14.2191471 91.91416454 13.22924805 92.92163086 C-7.29869476 113.80404297 -31.78773921 129.45372086 -57.125 143.875 C-58.25325195 144.52795044 -58.25325195 144.52795044 -59.40429688 145.1940918 C-61.22666296 146.21039507 -63.10980892 147.11621939 -65 148 C-65.99 147.67 -66.98 147.34 -68 147 C-67.14277344 146.2265625 -66.28554687 145.453125 -65.40234375 144.65625 C-59.21822445 139.03958904 -53.35170373 133.42657023 -48 127 C-46.69869141 125.53046875 -46.69869141 125.53046875 -45.37109375 124.03125 C-33.34161603 110.41852487 -22.99696471 95.76972618 -14 80 C-13.22420408 78.65220227 -12.44815845 77.30454824 -11.671875 75.95703125 C-9.76873737 72.6450244 -7.88026236 69.32504162 -6 66 C-7.18529297 66.69222656 -7.18529297 66.69222656 -8.39453125 67.3984375 C-12.2478186 69.62673853 -16.11903771 71.82036577 -20 74 C-21.03592285 74.58563721 -21.03592285 74.58563721 -22.09277344 75.18310547 C-44.1817368 87.57186708 -67.69988754 96.07638649 -92 103 C-93.25562744 103.36593262 -93.25562744 103.36593262 -94.53662109 103.73925781 C-106.41344857 107.19551714 -106.41344857 107.19551714 -110 106 C-109.34628418 105.59797363 -108.69256836 105.19594727 -108.01904297 104.78173828 C-92.03847768 94.93262955 -76.44875338 85.0225759 -62 73 C-61.49033691 72.58057129 -60.98067383 72.16114258 -60.45556641 71.72900391 C-47.07132531 60.68275948 -34.62537606 48.75748318 -24 35 C-23.2265625 34.04351562 -22.453125 33.08703125 -21.65625 32.1015625 C-14.78302981 23.46653587 -8.94412561 14.27560893 -3.16992188 4.87841797 C-2.1446822 3.23230068 -1.07572065 1.61358098 0 0 Z " fill="#0D69AE" transform="translate(273,413)"/>
<path d="M0 0 C14.44437854 -1.03432391 28.59452745 7.65715757 40.98095703 14.24194336 C42.11919922 14.83491211 43.25744141 15.42788086 44.43017578 16.03881836 C63.87999884 26.61084762 81.71071919 41.26329242 96.98095703 57.24194336 C97.97866609 58.24422906 98.97794046 59.24496906 99.98095703 60.24194336 C94.90599824 59.65150494 90.10316549 58.55519089 85.15991211 57.27490234 C68.61022038 53.03196835 51.8996884 50.42946193 34.98095703 48.24194336 C34.14201904 48.13281616 33.30308105 48.02368896 32.4387207 47.91125488 C-16.66738043 41.57107194 -65.96015732 39.23137306 -115.31054688 43.98803711 C-120.20981494 44.44731589 -125.11465971 44.841629 -130.01904297 45.24194336 C-128.73051726 41.90241416 -127.51455919 39.24451152 -125.20654297 36.49194336 C-124.72572266 35.89897461 -124.24490234 35.30600586 -123.74951172 34.69506836 C-121.54811246 32.8464893 -119.83038468 32.78149379 -117.01904297 32.24194336 C-114.80936713 31.10008768 -112.67071056 29.92014974 -110.51904297 28.67944336 C-86.31701618 15.40029583 -58.76714287 9.5690109 -31.89404297 4.30444336 C-31.13550018 4.15474091 -30.3769574 4.00503845 -29.59542847 3.85079956 C-19.736959 1.9218899 -10.00795088 0.80202809 0 0 Z " fill="#E7725E" transform="translate(458.01904296875,101.758056640625)"/>
<path d="M0 0 C2.43806987 2.2565546 4.12435424 4.60003159 5.85546875 7.4296875 C6.39171875 8.30141602 6.92796875 9.17314453 7.48046875 10.07128906 C8.04378906 10.99651367 8.60710937 11.92173828 9.1875 12.875 C9.76757812 13.82084961 10.34765625 14.76669922 10.9453125 15.74121094 C12.10361604 17.63022601 13.26038506 19.52018297 14.41552734 21.41113281 C15.75484452 23.59944088 17.10191614 25.78239576 18.45703125 27.9609375 C22.14030697 33.89080013 25.6834715 39.8578765 29 46 C29.87461698 47.60437553 30.74965155 49.20852344 31.625 50.8125 C32.11742187 51.72128906 32.60984375 52.63007813 33.1171875 53.56640625 C34.64670215 56.35570786 36.19650658 59.1308415 37.7578125 61.90234375 C38.24942871 62.78108154 38.74104492 63.65981934 39.24755859 64.56518555 C40.23169235 66.3238009 41.22140352 68.07930939 42.21728516 69.83129883 C44.82409074 74.50681632 46.78657295 78.77944178 48 84 C48.33 84 48.66 84 49 84 C50.80906664 73.92091442 51.13401491 64.17823343 51.03125 53.953125 C50.95683543 45.586801 51.31334614 37.33793975 52 29 C79.66429009 70.49643514 83.48994045 139.6811908 74.25 187.125 C68.58443374 214.38329739 58.24855459 240.29527068 42 263 C41.6071582 263.55155762 41.21431641 264.10311523 40.80957031 264.67138672 C35.55710137 272.00787308 35.55710137 272.00787308 33 275 C32.34 275 31.68 275 31 275 C32.24956221 271.85677136 33.5220381 268.72357209 34.8046875 265.59375 C39.9661629 252.93507612 44.67794833 240.53511698 47 227 C47.66 227.33 48.32 227.66 49 228 C59.64661292 189.23805975 60.39298945 150.3060024 47 112 C46.77086914 111.33887207 46.54173828 110.67774414 46.30566406 109.99658203 C38.91809386 89.14733637 27.17473442 69.89861063 13 53 C12.09326758 51.90795246 11.18704745 50.81547943 10.28125 49.72265625 C7.86224788 46.80828236 5.43351388 43.9022645 3 41 C2.67 42.98 2.34 44.96 2 47 C1.67 47 1.34 47 1 47 C1.00523682 45.93152832 1.01047363 44.86305664 1.01586914 43.76220703 C1.0341239 39.75521703 1.04550602 35.74823062 1.05493164 31.74121094 C1.05992544 30.01496765 1.06672279 28.28872851 1.07543945 26.5625 C1.11931286 17.64329523 1.15555011 8.86225047 0 0 Z " fill="#D32670" transform="translate(276,297)"/>
<path d="M0 0 C0.99 0.66 1.98 1.32 3 2 C-11.57907116 15.13114971 -27.91765039 27.81983237 -48.375 28.5 C-62.03062225 27.78128304 -73.61365053 20.72803671 -83 11 C-84.16594198 9.47348454 -85.31154302 7.9312426 -86.4375 6.375 C-89.92934699 1.69528725 -93.70296707 -0.67399661 -99 -3 C-100.4540625 -3.6496875 -100.4540625 -3.6496875 -101.9375 -4.3125 C-110.4806549 -6.2303511 -118.26411021 -5.14343955 -126 -1 C-129.60335519 1.75127974 -132.81437589 4.77999865 -136 8 C-136.57234375 8.55945313 -137.1446875 9.11890625 -137.734375 9.6953125 C-138.83871311 10.78103817 -139.92302526 11.8871261 -141 13 C-136.98385359 -2.26135638 -124.52939831 -15.29786363 -111.625 -23.6875 C-74.45973142 -44.39186543 -30.89659847 -21.59439678 0 0 Z " fill="#C9474F" transform="translate(162,249)"/>
<path d="M0 0 C2.78062811 1.39031406 3.45681139 3.32683152 5 6 C6.04501308 7.54920632 7.10540071 9.08813536 8.1796875 10.6171875 C8.77910156 11.47183594 9.37851562 12.32648438 9.99609375 13.20703125 C10.92615234 14.52767578 10.92615234 14.52767578 11.875 15.875 C12.48730469 16.74769531 13.09960938 17.62039063 13.73046875 18.51953125 C14.33246094 19.37675781 14.93445313 20.23398437 15.5546875 21.1171875 C16.14088867 21.96120117 16.72708984 22.80521484 17.33105469 23.67480469 C18.91777901 25.94820035 18.91777901 25.94820035 20.48925781 27.77050781 C27.48707437 36.24695325 26.33173501 48.66691532 26.25 59.0625 C26.24178223 60.34253906 26.23356445 61.62257813 26.22509766 62.94140625 C25.98219535 83.66906946 24.27982303 107.76184897 16 127 C15.67 127 15.34 127 15 127 C14.82726562 126.09765625 14.65453125 125.1953125 14.4765625 124.265625 C9.58655943 100.57075138 -0.32866129 78.072625 -10 56 C-10.04487549 56.58265625 -10.08975098 57.1653125 -10.13598633 57.765625 C-11.47836431 74.77688076 -13.57256264 90.7380154 -19 107 C-19.35449219 108.134375 -19.70898438 109.26875 -20.07421875 110.4375 C-20.42097656 111.530625 -20.76773438 112.62375 -21.125 113.75 C-21.59292969 115.22726562 -21.59292969 115.22726562 -22.0703125 116.734375 C-23 119 -23 119 -25 120 C-25.04898438 119.38253906 -25.09796875 118.76507813 -25.1484375 118.12890625 C-25.66626619 112.26315708 -26.62597261 106.71742939 -28 101 C-28.18175781 100.13890625 -28.36351562 99.2778125 -28.55078125 98.390625 C-30.42761458 89.68580291 -32.93100232 81.19249014 -35.48706055 72.66577148 C-36.07226184 70.70127012 -36.64701308 68.73361919 -37.21020508 66.76269531 C-37.71874496 64.98382753 -38.25071678 63.21140783 -38.8112793 61.44824219 C-39.44332232 59.2373525 -39.92770935 57.29808179 -40 55 C-38.32421875 52.171875 -38.32421875 52.171875 -35.6875 49.75 C-31.03318904 45.17358546 -27.40861638 40.54015775 -23.86987305 35.06347656 C-22.95817223 33.6783481 -21.98439337 32.33444705 -21 31 C-20.34 31 -19.68 31 -19 31 C-18.7525 30.278125 -18.505 29.55625 -18.25 28.8125 C-16.8600755 25.68516987 -15.1778091 23.64868674 -13 21 C-8.01654276 14.31901475 -3.83783432 7.39450861 0 0 Z " fill="#0D65A5" transform="translate(252,262)"/>
<path d="M0 0 C4.11922303 1.83375685 5.97016854 4.37778222 8.3125 8.125 C8.70131348 8.74173584 9.09012695 9.35847168 9.49072266 9.99389648 C16.17904578 20.91341215 20.81318327 32.35145202 23 45 C23.19529297 46.10408203 23.19529297 46.10408203 23.39453125 47.23046875 C23.68082282 49.14289645 23.84202668 51.0727255 24 53 C24.08765625 53.75410156 24.1753125 54.50820313 24.265625 55.28515625 C25.62940494 74.84300042 3.09177706 97.53815736 -9.0703125 111.66015625 C-28.19412579 133.5970629 -28.19412579 133.5970629 -35 137 C-34.33583395 132.84896217 -32.10204994 129.55562778 -30 126 C-16.34117591 102.16912701 -7.34857973 76.10473968 -3 49 C-2.34 49 -1.68 49 -1 49 C-1.020625 47.783125 -1.04125 46.56625 -1.0625 45.3125 C-1.06837133 41.53136511 -0.83924907 37.82768689 -0.5 34.0625 C0.06840078 26.92748157 0.1133478 19.84139473 0.0625 12.6875 C0.05798828 11.45837891 0.05347656 10.22925781 0.04882812 8.96289062 C0.03720289 5.97520644 0.02086559 2.98763145 0 0 Z " fill="#1683C4" transform="translate(302,441)"/>
<path d="M0 0 C1.38323708 -0.0049926 1.38323708 -0.0049926 2.79441833 -0.01008606 C4.73476672 -0.01511427 6.67512362 -0.01749567 8.61547852 -0.01733398 C11.52700715 -0.01950767 14.43814813 -0.03767265 17.34960938 -0.05664062 C28.71539029 -0.08962905 39.74860319 0.51378819 50.99609375 2.16796875 C50.99609375 2.82796875 50.99609375 3.48796875 50.99609375 4.16796875 C50.20025879 4.27866699 49.40442383 4.38936523 48.58447266 4.50341797 C44.92958162 5.01356325 41.27534123 5.52823459 37.62109375 6.04296875 C35.74357422 6.30400391 35.74357422 6.30400391 33.828125 6.5703125 C27.55282625 7.45739662 21.34208506 8.41062122 15.15771484 9.80517578 C12.73881951 10.21114805 10.44438395 10.22760452 7.99609375 10.16796875 C10.94534314 8.54690327 13.63416369 7.68353607 16.93359375 7.04296875 C18.18462891 6.79160156 18.18462891 6.79160156 19.4609375 6.53515625 C22.01067394 6.16585698 24.42368442 6.10354347 26.99609375 6.16796875 C26.99609375 5.17796875 26.99609375 4.18796875 26.99609375 3.16796875 C27.98609375 2.83796875 28.97609375 2.50796875 29.99609375 2.16796875 C25.01969755 2.14283934 20.04334004 2.12491067 15.06689453 2.11303711 C13.38166662 2.10807585 11.69644284 2.10130472 10.01123047 2.0925293 C-1.04171135 2.03650663 -11.98034829 2.31978208 -23.00390625 3.16796875 C-16.64347057 -1.07232171 -7.45431128 0.00967382 0 0 Z " fill="#992EAE" transform="translate(473.00390625,34.83203125)"/>
<path d="M0 0 C0.66 0.33 1.32 0.66 2 1 C-3.8353222 6.21593046 -9.8630954 11.14453715 -16 16 C-23.94332173 22.3139224 -31.35038091 29.14478393 -38.72021484 36.11279297 C-41.70353289 38.92030421 -44.63030587 41.6514253 -48 44 C-48.66 43.67 -49.32 43.34 -50 43 C-44.67868834 37.98709832 -39.34470444 32.987952 -34 28 C-33.07703125 27.13761719 -32.1540625 26.27523437 -31.203125 25.38671875 C-24.9722336 19.66809863 -18.36671908 14.48922478 -11.68652344 9.31347656 C-7.75647099 6.2527235 -3.88180671 3.12154503 0 0 Z " fill="#8D30AA" transform="translate(322,90)"/>
<path d="M0 0 C0.94587479 -0.0033284 1.89174957 -0.0066568 2.86628723 -0.01008606 C4.8485974 -0.01511032 6.83091589 -0.01749579 8.81323242 -0.01733398 C11.83461337 -0.01953313 14.85563592 -0.03777118 17.87695312 -0.05664062 C19.81380085 -0.05957304 21.75065029 -0.06155885 23.6875 -0.0625 C24.58244675 -0.06968552 25.47739349 -0.07687103 26.39945984 -0.08427429 C31.53917502 -0.06562925 35.77541458 0.50031591 40.64453125 2.16796875 C40.64453125 2.49796875 40.64453125 2.82796875 40.64453125 3.16796875 C38.99878559 3.19485026 37.35291712 3.21430998 35.70703125 3.23046875 C34.79050781 3.24207031 33.87398438 3.25367188 32.9296875 3.265625 C30.64453125 3.16796875 30.64453125 3.16796875 29.64453125 2.16796875 C27.09245787 2.06655172 24.56814886 2.02830338 22.015625 2.03515625 C21.23373306 2.03419952 20.45184113 2.0332428 19.64625549 2.03225708 C17.97746705 2.0315741 16.30867598 2.0334365 14.63989258 2.03759766 C12.14462883 2.04283731 9.64955415 2.03771375 7.15429688 2.03125 C-3.05590224 2.02743353 -13.17334121 2.39307857 -23.35546875 3.16796875 C-16.91327929 -1.12682423 -7.54297602 0.00944341 0 0 Z " fill="#A92BBA" transform="translate(473.35546875,34.83203125)"/>
<path d="M0 0 C0.33 0.99 0.66 1.98 1 3 C2.98 2.34 4.96 1.68 7 1 C3.37924984 5.97853147 -1.41915339 11.2095767 -7 14 C-6.34097701 10.42959697 -4.83770842 7.82267745 -2.9375 4.75 C-2.38964844 3.85796875 -1.84179688 2.9659375 -1.27734375 2.046875 C-0.64505859 1.03367187 -0.64505859 1.03367187 0 0 Z " fill="#41C0F2" transform="translate(274,564)"/>
<path d="M0 0 C0.66 0.33 1.32 0.66 2 1 C-3.8353222 6.21593046 -9.8630954 11.14453715 -16 16 C-17.66734707 17.33248239 -19.33419967 18.66558446 -21 20 C-21 19.01 -21 18.02 -21 17 C-19.04428848 15.10093257 -17.11235493 13.39526907 -15 11.6875 C-14.11501831 10.95599731 -14.11501831 10.95599731 -13.2121582 10.2097168 C-8.90555724 6.67179437 -4.51167938 3.27317916 0 0 Z " fill="#9D2DB3" transform="translate(322,90)"/>
<path d="M0 0 C0.66 0.33 1.32 0.66 2 1 C0.68 1.99 -0.64 2.98 -2 4 C-1.01 4.66 -0.02 5.32 1 6 C-0.76774419 6.53122363 -2.53934083 7.04964073 -4.3125 7.5625 C-5.29863281 7.85253906 -6.28476563 8.14257812 -7.30078125 8.44140625 C-10 9 -10 9 -13 8 C-10.880788 6.63594382 -8.75551882 5.28368225 -6.625 3.9375 C-6.02171875 3.54755859 -5.4184375 3.15761719 -4.796875 2.75585938 C-3.23507443 1.77539568 -1.62007786 0.88083925 0 0 Z " fill="#2FA0D8" transform="translate(176,511)"/>
<path d="M0 0 C0.33 0.66 0.66 1.32 1 2 C1.99 2.33 2.98 2.66 4 3 C2.88266271 4.50571657 1.75589965 6.00444292 0.625 7.5 C-0.00148438 8.3353125 -0.62796875 9.170625 -1.2734375 10.03125 C-1.84320313 10.6809375 -2.41296875 11.330625 -3 12 C-3.66 12 -4.32 12 -5 12 C-3.41037341 7.96479403 -1.71767682 3.98188718 0 0 Z " fill="#DA4B88" transform="translate(312,560)"/>
<path d="M0 0 C1.16835309 3.50505927 0.75193262 4.66433282 -0.3125 8.125 C-0.57675781 9.01445312 -0.84101563 9.90390625 -1.11328125 10.8203125 C-2 13 -2 13 -4 14 C-4.33 10.04 -4.66 6.08 -5 2 C-4.34 2 -3.68 2 -3 2 C-3 2.99 -3 3.98 -3 5 C-2.34 5 -1.68 5 -1 5 C-0.67 3.35 -0.34 1.7 0 0 Z " fill="#3BA7BE" transform="translate(231,368)"/>
<path d="M0 0 C3.68144382 1.84072191 4.76735619 6.51382515 6.46484375 10.1171875 C7.79424856 12.61362707 8.87622548 14.18686712 11 16 C9.68 16 8.36 16 7 16 C5.82558465 13.89983377 4.66035988 11.79541245 3.5 9.6875 C3.16613281 9.09259766 2.83226563 8.49769531 2.48828125 7.88476562 C0.93174886 5.04171156 0 3.29339012 0 0 Z " fill="#2B468C" transform="translate(94,288)"/>
<path d="M0 0 C1.70371595 2.57725758 2.02999961 3.75736575 1.64453125 6.875 C1.36996094 7.90625 1.09539062 8.9375 0.8125 10 C0.55082031 11.03125 0.28914063 12.0625 0.01953125 13.125 C-0.97262759 15.92281191 -2.08582435 17.75690966 -4 20 C-2.66666667 13.33333333 -1.33333333 6.66666667 0 0 Z " fill="#B02559" transform="translate(323,524)"/>
<path d="M0 0 C0 3.71884228 -0.8740066 4.36147729 -3.3125 7.0625 C-4.23482422 8.10083984 -4.23482422 8.10083984 -5.17578125 9.16015625 C-7 11 -7 11 -10 13 C-9.48223379 8.89552608 -7.35372556 7.04300477 -4.4375 4.25 C-3.61121094 3.45078125 -2.78492188 2.6515625 -1.93359375 1.828125 C-1.29550781 1.22484375 -0.65742188 0.6215625 0 0 Z " fill="#8236A4" transform="translate(271,134)"/>
<path d="M0 0 C0.33 0.66 0.66 1.32 1 2 C-6.11389522 11.59453303 -6.11389522 11.59453303 -11 15 C-9.3718356 11.24269753 -6.98598083 8.383177 -4.375 5.25 C-3.55773437 4.26515625 -2.74046875 3.2803125 -1.8984375 2.265625 C-1.27195313 1.51796875 -0.64546875 0.7703125 0 0 Z " fill="#399AD0" transform="translate(240,522)"/>
<path d="M0 0 C2.50816459 2.50816459 3.61410019 3.90837736 5 7 C4.01 7 3.02 7 2 7 C2.33 7.66 2.66 8.32 3 9 C3.06950541 10.54023996 3.08452357 12.08334988 3.0625 13.625 C3.05347656 14.44226563 3.04445313 15.25953125 3.03515625 16.1015625 C3.02355469 16.72804688 3.01195312 17.35453125 3 18 C2.67 18 2.34 18 2 18 C1.34 12.06 0.68 6.12 0 0 Z " fill="#D2456B" transform="translate(276,297)"/>
<path d="M0 0 C1.52713961 3.05427922 0.4452876 5.2907251 -0.3125 8.5625 C-0.57675781 9.73941406 -0.84101563 10.91632813 -1.11328125 12.12890625 C-1.40589844 13.07636719 -1.69851563 14.02382813 -2 15 C-2.99 15.495 -2.99 15.495 -4 16 C-4.6319296 9.99666876 -2.37544123 5.36595205 0 0 Z " fill="#2686C6" transform="translate(271,373)"/>
<path d="M0 0 C3.76687864 1.88343932 4.79421646 2.69132469 7 6 C6.34 7.32 5.68 8.64 5 10 C3.35 6.7 1.7 3.4 0 0 Z " fill="#444E94" transform="translate(81,262)"/>
<path d="M0 0 C1.32 0.66 2.64 1.32 4 2 C1.69 4.64 -0.62 7.28 -3 10 C-3.33 9.34 -3.66 8.68 -4 8 C-3.22265625 6.0546875 -3.22265625 6.0546875 -2.0625 3.875 C-1.49208984 2.78832031 -1.49208984 2.78832031 -0.91015625 1.6796875 C-0.60980469 1.12539062 -0.30945313 0.57109375 0 0 Z " fill="#D66162" transform="translate(25,252)"/>
<path d="M0 0 C0.99 0.66 1.98 1.32 3 2 C0.03 4.64 -2.94 7.28 -6 10 C-6 6.41087588 -5.33563446 5.89142971 -3 3.3125 C-2.443125 2.68988281 -1.88625 2.06726563 -1.3125 1.42578125 C-0.879375 0.95527344 -0.44625 0.48476562 0 0 Z " fill="#CC3670" transform="translate(336,135)"/>
<path d="M0 0 C0.33 0 0.66 0 1 0 C1.08333357 4.8333472 0.95261487 9.23692563 0 14 C-0.99 13.01 -1.98 12.02 -3 11 C-2 8 -2 8 -1 7 C-0.63239269 4.67182036 -0.29758419 2.3381615 0 0 Z " fill="#C166AB" transform="translate(372,372)"/>
<path d="M0 0 C0.721875 0.103125 1.44375 0.20625 2.1875 0.3125 C-1.10054981 3.22477269 -3.41135603 4.80951212 -7.8125 5.3125 C-3.50480769 0.38942308 -3.50480769 0.38942308 0 0 Z " fill="#37A6DB" transform="translate(212.8125,555.6875)"/>
<path d="M0 0 C0.33 0 0.66 0 1 0 C1.25 7.625 1.25 7.625 -1 11 C-1.66 9.02 -2.32 7.04 -3 5 C-2.34 5 -1.68 5 -1 5 C-0.67 3.35 -0.34 1.7 0 0 Z " fill="#B223B7" transform="translate(326,376)"/>
<path d="M0 0 C4 6 4 6 4 10 C3.01 10.33 2.02 10.66 1 11 C0.67 7.37 0.34 3.74 0 0 Z " fill="#DB4376" transform="translate(328,326)"/>
<path d="M0 0 C0.66 0 1.32 0 2 0 C0.44499019 3.81684226 -2.03595495 6.19195732 -5 9 C-5.66 8.67 -6.32 8.34 -7 8 C-5.88200014 6.66079162 -4.75538103 5.32877444 -3.625 4 C-2.68527344 2.88625 -2.68527344 2.88625 -1.7265625 1.75 C-1.15679687 1.1725 -0.58703125 0.595 0 0 Z " fill="#8036A8" transform="translate(258,147)"/>
</svg>
