<?xml version="1.0" encoding="UTF-8"?>
<!-- Generator: visioncortex VTracer 0.6.4 -->
<svg version="1.1" xmlns="http://www.w3.org/2000/svg" width="800" height="800">
<path d="M0 0 C3.37793915 1.41380809 5.03716603 2.99111673 7.1796875 5.9375 C8.06756958 7.1426123 8.06756958 7.1426123 8.97338867 8.37207031 C9.60092041 9.23928711 10.22845215 10.10650391 10.875 11 C12.22121789 12.82918446 13.56890597 14.6572877 14.91796875 16.484375 C15.59907715 17.40927734 16.28018555 18.33417969 16.98193359 19.28710938 C19.98606144 23.32556432 23.08104665 27.29004414 26.1875 31.25 C31.04165712 37.45505584 35.8157164 43.71199393 40.52758789 50.02563477 C47.59380069 59.48836861 54.79695945 68.84730711 62.00732422 78.20043945 C65.53582399 82.77778405 69.03907126 87.37131034 72.5 92 C75.89303694 96.5378181 79.32826409 101.04024647 82.78833008 105.52709961 C92.78299696 118.49666076 102.67353338 131.54352327 112.47290039 144.66113281 C117.34969679 151.1721576 122.31971946 157.60658912 127.34619141 164.00268555 C128.4096359 165.35898336 129.46307602 166.72320322 130.50488281 168.09619141 C131.96554188 170.0145528 131.96554188 170.0145528 133.61230469 171.71240234 C135.15641126 173.46678983 136.18969765 174.80334963 137 177 C136.60116874 180.57387007 135.33751171 183.68091818 134 187 C133.52125763 188.45121772 133.05578526 189.90689912 132.60546875 191.3671875 C132.25983887 192.45640503 132.25983887 192.45640503 131.90722656 193.56762695 C126.21598076 211.813205 121.73301928 230.93678792 120 250 C119.91532471 250.92498291 119.83064941 251.84996582 119.7434082 252.80297852 C119.05467929 260.89814514 118.80757079 268.939705 118.8125 277.0625 C118.81258057 278.31732178 118.81266113 279.57214355 118.81274414 280.86499023 C118.88323077 292.48192933 119.01349325 304.69628292 122 316 C122.83660156 315.11699219 123.67320312 314.23398437 124.53515625 313.32421875 C147.29331161 289.69584024 174.19899265 274.48729168 207.5 273.75 C232.70298371 274.27699966 258.43075735 281.60243363 278 298 C279.27037109 299.04607422 279.27037109 299.04607422 280.56640625 300.11328125 C294.30809233 311.92483737 304.47495064 326.78836084 307 345 C307.52414156 353.79953036 306.98768671 361.7096811 304.55859375 370.1953125 C303.80001875 374.00410168 304.06381736 376.59572604 306.234375 379.8515625 C306.73453125 380.43679688 307.2346875 381.02203125 307.75 381.625 C315.32835345 391.39185171 321 406.51454134 321 419 C317.56120966 417.51736128 315.35137089 415.54616114 312.6875 412.9375 C293.5915907 395.54708187 266.46342617 387.68325688 241 387.9375 C240.12988281 387.94201172 239.25976562 387.94652344 238.36328125 387.95117188 C236.24215707 387.9628264 234.1210689 387.98075643 232 388 C231.70867188 389.1859375 231.41734375 390.371875 231.1171875 391.59375 C221.99207084 427.96942225 203.92929504 458.01380435 178 485 C177.484375 485.53753906 176.96875 486.07507813 176.4375 486.62890625 C169.34675609 493.97532602 162.0160621 500.6604999 154 507 C152.78287387 508.00374924 151.56818244 509.01045541 150.35546875 510.01953125 C149.69780518 510.56351563 149.0401416 511.1075 148.36254883 511.66796875 C147.113051 512.70182422 145.86636276 513.7390944 144.6237793 514.78125 C131.32240921 525.70455485 116.63984788 535.00094309 102.3125 544.5 C100.70623249 545.56748609 99.10011224 546.63519381 97.49414062 547.703125 C94.56901517 549.64784408 91.64307746 551.59132627 88.71606445 553.53320312 C85.4742651 555.68415708 82.23620554 557.84063988 79 560 C79.27150879 560.62753174 79.54301758 561.25506348 79.82275391 561.90161133 C92.05268185 590.31303301 103.18834356 618.84591161 95 650 C93.58085567 653.50562438 91.96437227 656.77004402 90 660 C89.34 660 88.68 660 88 660 C87.01 657.69 86.02 655.38 85 653 C84.90501221 653.56807373 84.81002441 654.13614746 84.7121582 654.72143555 C78.25631038 692.62511659 78.25631038 692.62511659 64 703 C55 672.20960699 55 672.20960699 55 665 C54.34 665 53.68 665 53 665 C52.88785156 666.0003125 52.77570313 667.000625 52.66015625 668.03125 C49.84515027 687.53556972 37.40286451 706.91421664 22.9375 719.8125 C20 722 20 722 18 722 C17.34 705.17 16.68 688.34 16 671 C12.535 676.445 12.535 676.445 9 682 C-0.36453062 694.51803287 -11.25349276 705.09179026 -26 711 C-26.66 711 -27.32 711 -28 711 C-27.37131207 703.80428718 -25.95508105 697.01026007 -24.2421875 690 C-23.97487823 688.88310791 -23.70756897 687.76621582 -23.43215942 686.61547852 C-22.29518946 681.86519347 -21.14558617 677.11799165 -19.99658203 672.37060547 C-19.15707921 668.894015 -18.32441304 665.41583834 -17.4921875 661.9375 C-17.22767792 660.85533203 -16.96316833 659.77316406 -16.69064331 658.65820312 C-16.45354645 657.66626953 -16.21644958 656.67433594 -15.97216797 655.65234375 C-15.75978485 654.77570068 -15.54740173 653.89905762 -15.32858276 652.99584961 C-15.22015045 652.33721924 -15.11171814 651.67858887 -15 651 C-15.33 650.67 -15.66 650.34 -16 650 C-16.87140625 650.71285156 -17.7428125 651.42570313 -18.640625 652.16015625 C-31.67507225 662.6993905 -44.10862832 670.42847774 -61 673 C-60.43541117 668.54140882 -58.60157931 665.29736126 -56.25 661.5625 C-55.4222529 660.21410856 -54.59548829 658.86511368 -53.76953125 657.515625 C-53.32174316 656.78794922 -52.87395508 656.06027344 -52.41259766 655.31054688 C-49.88035818 651.16863287 -47.40830155 646.99126724 -44.9375 642.8125 C-44.39375732 641.89331787 -43.85001465 640.97413574 -43.28979492 640.02709961 C-38.4629346 631.83893521 -33.74479422 623.58977019 -29.04055786 615.33084106 C-22.68454191 604.17267897 -16.23696004 593.06996947 -9.74853516 581.98828125 C-6.68082901 576.74551063 -3.62226004 571.49741061 -0.5625 566.25 C0.54032478 564.35935178 1.64318799 562.46872598 2.74609375 560.578125 C3.27436768 559.66345459 3.8026416 558.74878418 4.34692383 557.80639648 C5.48728386 555.8704286 6.66132173 553.95404169 7.86206055 552.05493164 C12.16914478 545.11520774 14.41767154 538.9310636 15.9375 530.9375 C20.83543684 507.76796935 28.36434232 485.38708712 36 463 C35.23558594 463.50789063 34.47117187 464.01578125 33.68359375 464.5390625 C18.53712673 474.27217127 4.00524916 478.94250469 -14 480 C-13.09122896 475.59171063 -10.74953834 472.43218791 -8.1875 468.8125 C-7.70627686 468.12285156 -7.22505371 467.43320312 -6.72924805 466.72265625 C-5.15941091 464.47707478 -3.58038456 462.23816879 -2 460 C-0.86706742 458.38940738 0.26574437 456.77872978 1.3984375 455.16796875 C4.25799702 451.10654714 7.12669685 447.05170846 10 443 C9.50371094 443.37729248 9.00742187 443.75458496 8.49609375 444.14331055 C-17.82688042 464.03850912 -48.60699978 482.30937376 -82.5625 482.125 C-83.27857422 482.12886719 -83.99464844 482.13273437 -84.73242188 482.13671875 C-89.25367635 482.12849081 -93.53905679 481.73860558 -98 481 C-96.69705546 478.15256683 -95.29218843 476.01096083 -93.1484375 473.734375 C-92.55546875 473.10281494 -91.9625 472.47125488 -91.3515625 471.82055664 C-90.69929688 471.13727295 -90.04703125 470.45398926 -89.375 469.75 C-88.694375 469.02997803 -88.01375 468.30995605 -87.3125 467.56811523 C-82.81310978 462.84424886 -78.2290557 458.21099158 -73.6015625 453.61328125 C-73.05607758 453.07083771 -72.51059265 452.52839417 -71.94857788 451.96951294 C-69.2152884 449.25408513 -66.47491963 446.54632234 -63.72412109 443.84863281 C-62.71181876 442.84840374 -61.69960742 441.84808255 -60.6875 440.84765625 C-59.78386719 439.96086182 -58.88023437 439.07406738 -57.94921875 438.16040039 C-55.77670444 436.23747452 -55.77670444 436.23747452 -56 434 C-57.00933594 434.58265625 -58.01867187 435.1653125 -59.05859375 435.765625 C-86.24545472 451.27301306 -114.24021241 463.70277618 -145 470 C-146.05445313 470.23332031 -147.10890625 470.46664063 -148.1953125 470.70703125 C-171.3534351 475.29247148 -193.62098844 472.50033374 -216 466 C-214.84049696 462.52149089 -214.07055411 462.07673383 -211.125 460.06640625 C-210.31329346 459.50614746 -209.50158691 458.94588867 -208.6652832 458.36865234 C-207.78573975 457.77262207 -206.90619629 457.1765918 -206 456.5625 C-204.1599005 455.2959444 -202.32006083 454.02901123 -200.48046875 452.76171875 C-199.55540527 452.1279834 -198.6303418 451.49424805 -197.67724609 450.84130859 C-193.86506685 448.21943591 -190.08721728 445.55039331 -186.3125 442.875 C-184.9232803 441.89308312 -183.53395757 440.91131198 -182.14453125 439.9296875 C-181.46213379 439.44725586 -180.77973633 438.96482422 -180.07666016 438.46777344 C-175.84704625 435.47830262 -171.61488238 432.49244208 -167.38305664 429.50610352 C-163.79056782 426.970692 -160.19906205 424.43390836 -156.609375 421.89453125 C-148.10577375 415.88129067 -139.57758619 409.90734632 -131 404 C-138.18599922 405.95511 -138.18599922 405.95511 -145.36572266 407.93310547 C-161.46207212 412.3937021 -177.44746374 416.59146251 -194 419 C-194.9988623 419.14808105 -195.99772461 419.29616211 -197.02685547 419.44873047 C-235.01857111 424.90801954 -273.91444933 423.28617951 -308.5 405.3125 C-309.23677979 404.93198486 -309.97355957 404.55146973 -310.73266602 404.15942383 C-315.87438146 401.37685562 -315.87438146 401.37685562 -317 398 C-315.2672583 397.31756226 -315.2672583 397.31756226 -313.49951172 396.62133789 C-299.60823932 391.12269793 -285.85956229 385.31480078 -272.125 379.4375 C-269.78460609 378.43799618 -267.44410916 377.43873354 -265.10351562 376.43969727 C-260.84479486 374.62177247 -256.58632611 372.80326105 -252.32825089 370.98382473 C-244.20836795 367.51446066 -236.08531666 364.05257041 -227.9609375 360.59375 C-227.3493491 360.33336504 -226.7377607 360.07298008 -226.10763931 359.80470467 C-223.08007386 358.51572977 -220.05246695 357.22685232 -217.02484131 355.9380188 C-196.00262824 346.99192993 -196.00262824 346.99192993 -175 338 C-175.72251953 338.06058594 -176.44503906 338.12117188 -177.18945312 338.18359375 C-235.80766371 342.9974708 -301.74661701 341.31510555 -348.96484375 301.5 C-353.99745929 297.09557911 -353.99745929 297.09557911 -356 295 C-356 294.34 -356 293.68 -356 293 C-345.83855608 290.52930412 -335.62632863 288.56850677 -325.33984375 286.70703125 C-323.63768303 286.39668588 -321.93557132 286.08607159 -320.23350525 285.77520752 C-315.72768061 284.95302637 -311.22119585 284.13452094 -306.71456146 283.31679153 C-302.07184259 282.47371195 -297.42975274 281.6271832 -292.78759766 280.78100586 C-284.63398579 279.29525633 -276.47986975 277.81229859 -268.3254509 276.33098507 C-260.81947077 274.9674288 -253.31397399 273.60122963 -245.80859375 272.234375 C-236.20635716 270.48611692 -226.6035481 268.74103917 -217 267 C-221.35814489 265.89572078 -225.70219744 264.81403792 -230.109375 263.921875 C-274.74662534 254.68753642 -320.39157556 237.84001765 -347.671875 199.08203125 C-349 197 -349 197 -349 196 C-300.16 196 -251.32 196 -201 196 C-209.25 192.7 -217.5 189.4 -226 186 C-231.41522794 183.40679226 -236.71393942 180.81553576 -242 178 C-242.94101563 177.52433594 -243.88203125 177.04867187 -244.8515625 176.55859375 C-256.42508113 170.5669934 -267.38477989 162.98637311 -276.84765625 154.02734375 C-278.8107718 152.17823854 -280.84021702 150.504674 -282.9375 148.8125 C-293.52778886 139.50329447 -303.52280538 125.43158385 -308 112 C-300.19559938 112.54977854 -292.65930821 113.69587604 -284.99536133 115.24633789 C-283.26695086 115.58882852 -283.26695086 115.58882852 -281.50362301 115.93823814 C-278.35490496 116.56334189 -275.2072482 117.19348735 -272.05999851 117.82593417 C-268.69529934 118.5007939 -265.32929283 119.16907289 -261.96343994 119.83815002 C-256.22033577 120.98070156 -250.478065 122.127362 -244.73635864 123.2769165 C-236.54904839 124.91608362 -228.36035976 126.54827681 -220.17133415 128.1788497 C-194.32557666 133.32565582 -168.48463703 138.49648301 -142.64769936 143.68738365 C-139.73363299 144.27275053 -136.81948983 144.85773353 -133.90531921 145.44258118 C-132.06863165 145.81123692 -130.23194642 146.17990424 -128.39526367 146.54858398 C-127.51985522 146.7242946 -126.64444677 146.90000521 -125.7425108 147.08104038 C-120.67950738 148.09779942 -115.61738778 149.11882572 -110.55595207 150.14335918 C-107.50157775 150.76098982 -104.44661671 151.3756788 -101.39150238 151.98963737 C-100.01116842 152.26777229 -98.63110628 152.54726039 -97.2513504 152.82824898 C-95.40793609 153.20359168 -93.56349265 153.57386964 -91.71899414 153.94384766 C-90.70180801 154.14966461 -89.68462189 154.35548157 -88.63661194 154.5675354 C-85.78743144 155.10790667 -85.78743144 155.10790667 -82 155 C-82.43135254 154.59185059 -82.86270508 154.18370117 -83.30712891 153.76318359 C-104.39039372 133.32245638 -117.00463166 106.10485549 -119 77 C-110.92898109 81.29134135 -103.10186964 85.90698399 -95.3125 90.6875 C-92.83999007 92.19899568 -90.36571789 93.70758185 -87.890625 95.21484375 C-87.25189957 95.60382843 -86.61317413 95.99281311 -85.95509338 96.39358521 C-78.52779646 100.90788463 -71.0442449 105.32677539 -63.5625 109.75 C-51.27850308 117.01495691 -39.08611343 124.40877367 -27 132 C-28.75105385 128.32357039 -30.94660755 125.4336602 -33.5 122.25 C-45.70443981 106.66089197 -55.83194385 88.85537448 -62 70 C-62.39316406 68.79988281 -62.78632813 67.59976563 -63.19140625 66.36328125 C-67.07185299 53.14798432 -66.39217836 39.64629843 -66 26 C-62.64642343 27.90138895 -59.85245372 29.87824692 -57.07421875 32.546875 C-56.35943359 33.2275 -55.64464844 33.908125 -54.90820312 34.609375 C-54.17537109 35.31578125 -53.44253906 36.0221875 -52.6875 36.75 C-47.23531226 41.97318611 -41.70767204 47.05737057 -36 52 C-34.37103946 53.45390807 -32.74541821 54.91157732 -31.125 56.375 C-30.279375 57.138125 -29.43375 57.90125 -28.5625 58.6875 C-27.716875 59.450625 -26.87125 60.21375 -26 61 C-24.7934375 62.0828125 -24.7934375 62.0828125 -23.5625 63.1875 C-18.97386445 67.30550627 -14.41288087 71.45128763 -9.875 75.625 C-5.9662434 79.21849457 -2.025582 82.76686116 1.9921875 86.23828125 C5.28336632 89.12606656 8.48923686 92.10867296 11.703125 95.08203125 C13.75619065 96.7964109 15.55989475 97.94224795 18 99 C17.49210937 98.00742188 16.98421875 97.01484375 16.4609375 95.9921875 C1.07992215 65.73297605 -10.70520421 33.78830079 0 0 Z " fill="#2192B3" transform="translate(410,41)"/>
<path d="M0 0 C7.51337283 0.54688394 14.79142226 1.57769432 22.17529297 3.05371094 C23.23200699 3.26040405 24.28872101 3.46709717 25.37745667 3.68005371 C28.83368977 4.35831102 32.28806312 5.04546399 35.7421875 5.734375 C36.92840824 5.96993355 38.11462898 6.2054921 39.33679581 6.44818878 C45.60084492 7.69235397 51.86347765 8.94337783 58.125 10.20019531 C64.58791282 11.49606243 71.05520005 12.76855142 77.52377129 14.03582382 C82.50716697 15.01646414 87.48703819 16.01415199 92.46609879 17.01654816 C94.8498513 17.49337113 97.23489745 17.96377383 99.62121201 18.42760468 C102.9517416 19.07663336 106.27656177 19.74962836 109.60107422 20.42871094 C110.58504684 20.61487976 111.56901947 20.80104858 112.58280945 20.99285889 C118.19095739 22.16954782 121.26085753 23.39097603 125 28 C138.14428242 39.73530433 152.31858933 50.04962172 166.96923828 59.81201172 C167.74122559 60.33037598 168.51321289 60.84874023 169.30859375 61.3828125 C169.99751709 61.84059082 170.68644043 62.29836914 171.39624023 62.77001953 C173 64 173 64 174 66 C175.64363134 66.72159424 177.31050386 67.39351421 179 68 C179 68.66 179 69.32 179 70 C179.72703125 70.10441406 180.4540625 70.20882812 181.203125 70.31640625 C184.25464651 71.06223902 186.17010987 72.16707204 188.75 73.9375 C189.52859375 74.46214844 190.3071875 74.98679687 191.109375 75.52734375 C193 77 193 77 194 79 C195.84736179 79.72965131 195.84736179 79.72965131 198.0625 80.3125 C202.26037398 81.61597998 205.57236403 83.42113235 209.17578125 85.9140625 C211.1092381 87.06502825 212.80329237 87.56356802 215 88 C215 88.66 215 89.32 215 90 C216.1446875 90.0928125 216.1446875 90.0928125 217.3125 90.1875 C221.60617636 91.13356428 225.17351226 92.80771453 229.140625 94.66796875 C236.19403031 97.95377641 242.99700427 100.42244399 250.65234375 101.8984375 C254.06400922 103.49925225 254.63739746 105.56046086 256 109 C256.60453618 110.88285057 257.16545613 112.78012996 257.6875 114.6875 C261.90245689 128.75872489 268.30127907 142.02929277 275.01318359 155.05712891 C275.99956493 156.99914343 276.95162549 158.95451766 277.89453125 160.91796875 C282.55868987 170.58217235 287.89963596 179.69384097 293.60644531 188.77734375 C294.97478084 190.95977659 296.32915972 193.15026199 297.6796875 195.34375 C306.30298314 209.46173944 306.30298314 209.46173944 317 222 C318.43957004 223.71014616 319.85608369 225.43994196 321.25 227.1875 C328.04458536 235.55263705 335.27705922 243.36393335 342.875 251 C343.53000488 251.65967773 344.18500977 252.31935547 344.85986328 252.99902344 C345.48103027 253.6180957 346.10219727 254.23716797 346.7421875 254.875 C347.57532471 255.70644531 347.57532471 255.70644531 348.42529297 256.5546875 C350.14630903 258.20873364 350.14630903 258.20873364 353 260 C353 260.66 353 261.32 353 262 C353.66 262 354.32 262 355 262 C356.68762851 263.6454378 358.3540349 265.31288577 360 267 C360.66 267.33 361.32 267.66 362 268 C362 268.66 362 269.32 362 270 C362.70511719 270.2371875 363.41023438 270.474375 364.13671875 270.71875 C367.50590377 272.22637986 369.94592829 274.1743603 372.8125 276.5 C380.13749811 282.32589359 387.9960447 287.17091272 396 292 C395.45318307 295.68232672 394.58241594 298.01887727 392.34765625 300.98828125 C391.81849609 301.69404297 391.28933594 302.39980469 390.74414062 303.12695312 C390.18919922 303.84818359 389.63425781 304.56941406 389.0625 305.3125 C388.51142578 306.05306641 387.96035156 306.79363281 387.39257812 307.55664062 C384.33711948 311.58479693 384.33711948 311.58479693 383 313 C382.34 313 381.68 313 381 313 C380.73823975 313.74548096 380.47647949 314.49096191 380.20678711 315.2590332 C378.98483226 318.03445038 377.76332592 319.66921285 375.69140625 321.85546875 C375.03237305 322.55542969 374.37333984 323.25539063 373.69433594 323.9765625 C372.63907715 325.07097656 372.63907715 325.07097656 371.5625 326.1875 C370.8396582 326.94417969 370.11681641 327.70085937 369.37207031 328.48046875 C347.59427751 351.10071063 325.5771018 365.33348918 294 368 C294.90877104 363.59171063 297.25046166 360.43218791 299.8125 356.8125 C300.29372314 356.12285156 300.77494629 355.43320312 301.27075195 354.72265625 C302.84058909 352.47707478 304.41961544 350.23816879 306 348 C307.13293258 346.38940738 308.26574437 344.77872978 309.3984375 343.16796875 C312.25799702 339.10654714 315.12669685 335.05170846 318 331 C317.50371094 331.37729248 317.00742187 331.75458496 316.49609375 332.14331055 C290.17311958 352.03850912 259.39300022 370.30937376 225.4375 370.125 C224.72142578 370.12886719 224.00535156 370.13273437 223.26757812 370.13671875 C218.74632365 370.12849081 214.46094321 369.73860558 210 369 C211.30294454 366.15256683 212.70781157 364.01096083 214.8515625 361.734375 C215.44453125 361.10281494 216.0375 360.47125488 216.6484375 359.82055664 C217.30070312 359.13727295 217.95296875 358.45398926 218.625 357.75 C219.305625 357.02997803 219.98625 356.30995605 220.6875 355.56811523 C225.18689022 350.84424886 229.7709443 346.21099158 234.3984375 341.61328125 C234.94392242 341.07083771 235.48940735 340.52839417 236.05142212 339.96951294 C238.7847116 337.25408513 241.52508037 334.54632234 244.27587891 331.84863281 C245.28818124 330.84840374 246.30039258 329.84808255 247.3125 328.84765625 C248.21613281 327.96086182 249.11976563 327.07406738 250.05078125 326.16040039 C252.22329556 324.23747452 252.22329556 324.23747452 252 322 C250.99066406 322.58265625 249.98132813 323.1653125 248.94140625 323.765625 C221.75454528 339.27301306 193.75978759 351.70277618 163 358 C161.94554687 358.23332031 160.89109375 358.46664063 159.8046875 358.70703125 C136.6465649 363.29247148 114.37901156 360.50033374 92 354 C93.15950304 350.52149089 93.92944589 350.07673383 96.875 348.06640625 C97.68670654 347.50614746 98.49841309 346.94588867 99.3347168 346.36865234 C100.21426025 345.77262207 101.09380371 345.1765918 102 344.5625 C103.8400995 343.2959444 105.67993917 342.02901123 107.51953125 340.76171875 C108.44459473 340.1279834 109.3696582 339.49424805 110.32275391 338.84130859 C114.13493315 336.21943591 117.91278272 333.55039331 121.6875 330.875 C123.0767197 329.89308312 124.46604243 328.91131198 125.85546875 327.9296875 C126.53786621 327.44725586 127.22026367 326.96482422 127.92333984 326.46777344 C132.15295375 323.47830262 136.38511762 320.49244208 140.61694336 317.50610352 C144.20943218 314.970692 147.80093795 312.43390836 151.390625 309.89453125 C159.89422625 303.88129067 168.42241381 297.90734632 177 292 C169.81400078 293.95511 169.81400078 293.95511 162.63427734 295.93310547 C146.53792788 300.3937021 130.55253626 304.59146251 114 307 C113.0011377 307.14808105 112.00227539 307.29616211 110.97314453 307.44873047 C72.98142889 312.90801954 34.08555067 311.28617951 -0.5 293.3125 C-1.23677979 292.93198486 -1.97355957 292.55146973 -2.73266602 292.15942383 C-7.87438146 289.37685562 -7.87438146 289.37685562 -9 286 C-7.2672583 285.31756226 -7.2672583 285.31756226 -5.49951172 284.62133789 C8.39176068 279.12269793 22.14043771 273.31480078 35.875 267.4375 C38.21539391 266.43799618 40.55589084 265.43873354 42.89648438 264.43969727 C47.15520514 262.62177247 51.41367389 260.80326105 55.67174911 258.98382473 C63.79163205 255.51446066 71.91468334 252.05257041 80.0390625 248.59375 C80.6506509 248.33336504 81.2622393 248.07298008 81.89236069 247.80470467 C84.91992614 246.51572977 87.94753305 245.22685232 90.97515869 243.9380188 C111.99737176 234.99192993 111.99737176 234.99192993 133 226 C132.27748047 226.06058594 131.55496094 226.12117187 130.81054688 226.18359375 C72.19233629 230.9974708 6.25338299 229.31510555 -40.96484375 189.5 C-45.99745929 185.09557911 -45.99745929 185.09557911 -48 183 C-48 182.34 -48 181.68 -48 181 C-37.83855608 178.52930412 -27.62632863 176.56850677 -17.33984375 174.70703125 C-15.63768303 174.39668588 -13.93557132 174.08607159 -12.23350525 173.77520752 C-7.72768061 172.95302637 -3.22119585 172.13452094 1.28543854 171.31679153 C5.92815741 170.47371195 10.57024726 169.6271832 15.21240234 168.78100586 C23.36601421 167.29525633 31.52013025 165.81229859 39.6745491 164.33098507 C47.18052923 162.9674288 54.68602601 161.60122963 62.19140625 160.234375 C71.79364284 158.48611692 81.3964519 156.74103917 91 155 C86.64185511 153.89572078 82.29780256 152.81403792 77.890625 151.921875 C33.25337466 142.68753642 -12.39157556 125.84001765 -39.671875 87.08203125 C-41 85 -41 85 -41 84 C7.84 84 56.68 84 107 84 C98.75 80.7 90.5 77.4 82 74 C76.58477206 71.40679226 71.28606058 68.81553576 66 66 C65.05898437 65.52433594 64.11796875 65.04867187 63.1484375 64.55859375 C51.57491887 58.5669934 40.61522011 50.98637311 31.15234375 42.02734375 C29.1892282 40.17823854 27.15978298 38.504674 25.0625 36.8125 C14.47221114 27.50329447 4.47719462 13.43158385 0 0 Z " fill="#64B86D" transform="translate(102,153)"/>
<path d="M0 0 C2.11892022 1.55687684 3.0236509 2.85045121 4.27124023 5.15649414 C4.69840332 5.92590332 5.12556641 6.6953125 5.56567383 7.48803711 C6.23783936 8.7277124 6.23783936 8.7277124 6.92358398 9.99243164 C10.61979287 16.5893036 14.44997261 23.01036529 18.73608398 29.24243164 C19.17573486 29.88905762 19.61538574 30.53568359 20.06835938 31.2019043 C22.69958256 34.98050677 25.55011342 38.14637561 28.86108398 41.36743164 C30.30065403 43.0775778 31.71716767 44.8073736 33.11108398 46.55493164 C39.90566934 54.92006869 47.1381432 62.73136499 54.73608398 70.36743164 C55.39108887 71.02710938 56.04609375 71.68678711 56.72094727 72.36645508 C57.34211426 72.98552734 57.96328125 73.60459961 58.60327148 74.24243164 C59.15869629 74.79672852 59.71412109 75.35102539 60.28637695 75.92211914 C62.00739301 77.57616528 62.00739301 77.57616528 64.86108398 79.36743164 C64.86108398 80.02743164 64.86108398 80.68743164 64.86108398 81.36743164 C65.52108398 81.36743164 66.18108398 81.36743164 66.86108398 81.36743164 C68.5487125 83.01286944 70.21511888 84.68031741 71.86108398 86.36743164 C72.52108398 86.69743164 73.18108398 87.02743164 73.86108398 87.36743164 C73.86108398 88.02743164 73.86108398 88.68743164 73.86108398 89.36743164 C74.56620117 89.60461914 75.27131836 89.84180664 75.99780273 90.08618164 C79.36698775 91.5938115 81.80701227 93.54179194 84.67358398 95.86743164 C91.9985821 101.69332523 99.85712868 106.53834436 107.86108398 111.36743164 C107.31426705 115.04975836 106.44349993 117.38630891 104.20874023 120.35571289 C103.67958008 121.06147461 103.15041992 121.76723633 102.60522461 122.49438477 C102.0502832 123.21561523 101.4953418 123.9368457 100.92358398 124.67993164 C100.37250977 125.42049805 99.82143555 126.16106445 99.25366211 126.92407227 C96.19820346 130.95222857 96.19820346 130.95222857 94.86108398 132.36743164 C94.20108398 132.36743164 93.54108398 132.36743164 92.86108398 132.36743164 C92.59932373 133.1129126 92.33756348 133.85839355 92.06787109 134.62646484 C90.84591624 137.40188202 89.6244099 139.03664449 87.55249023 141.22290039 C86.89345703 141.92286133 86.23442383 142.62282227 85.55541992 143.34399414 C84.50016113 144.4384082 84.50016113 144.4384082 83.42358398 145.55493164 C82.33932129 146.68995117 82.33932129 146.68995117 81.2331543 147.84790039 C59.45536149 170.46814227 37.43818578 184.70092082 5.86108398 187.36743164 C6.76985503 182.95914227 9.11154564 179.79961955 11.67358398 176.17993164 C12.15480713 175.4902832 12.63603027 174.80063477 13.13183594 174.09008789 C14.70167307 171.84450642 16.28069943 169.60560043 17.86108398 167.36743164 C18.99401656 165.75683902 20.12682836 164.14616142 21.25952148 162.53540039 C24.11908101 158.47397878 26.98778083 154.4191401 29.86108398 150.36743164 C29.11665039 150.93337036 29.11665039 150.93337036 28.35717773 151.51074219 C2.03420356 171.40594076 -28.7459158 189.6768054 -62.70141602 189.49243164 C-63.41749023 189.49629883 -64.13356445 189.50016602 -64.87133789 189.50415039 C-69.39259236 189.49592245 -73.67797281 189.10603722 -78.13891602 188.36743164 C-76.83597147 185.51999847 -75.43110444 183.37839247 -73.28735352 181.10180664 C-72.69438477 180.47024658 -72.10141602 179.83868652 -71.49047852 179.18798828 C-70.83821289 178.50470459 -70.18594727 177.8214209 -69.51391602 177.11743164 C-68.49297852 176.03739868 -68.49297852 176.03739868 -67.45141602 174.93554688 C-62.95202579 170.2116805 -58.36797172 165.57842322 -53.74047852 160.98071289 C-52.92225113 160.16704758 -52.92225113 160.16704758 -52.0874939 159.33694458 C-49.35420442 156.62151677 -46.61383565 153.91375398 -43.86303711 151.21606445 C-42.85073478 150.21583538 -41.83852344 149.21551419 -40.82641602 148.21508789 C-39.9227832 147.32829346 -39.01915039 146.44149902 -38.08813477 145.52783203 C-35.91562045 143.60490616 -35.91562045 143.60490616 -36.13891602 141.36743164 C-37.14825195 141.95008789 -38.15758789 142.53274414 -39.19750977 143.13305664 C-66.38437073 158.6404447 -94.37912843 171.07020782 -125.13891602 177.36743164 C-126.19336914 177.60075195 -127.24782227 177.83407227 -128.33422852 178.07446289 C-151.49235112 182.65990312 -173.75990445 179.86776538 -196.13891602 173.36743164 C-194.97941298 169.88892253 -194.20947013 169.44416547 -191.26391602 167.43383789 C-190.45220947 166.8735791 -189.64050293 166.31332031 -188.80419922 165.73608398 C-187.92465576 165.14005371 -187.0451123 164.54402344 -186.13891602 163.92993164 C-184.29881652 162.66337604 -182.45897685 161.39644287 -180.61938477 160.12915039 C-179.69432129 159.49541504 -178.76925781 158.86167969 -177.81616211 158.20874023 C-174.00398287 155.58686755 -170.22613329 152.91782495 -166.45141602 150.24243164 C-165.06219631 149.26051476 -163.67287359 148.27874362 -162.28344727 147.29711914 C-161.6010498 146.8146875 -160.91865234 146.33225586 -160.21557617 145.83520508 C-155.98596227 142.84573426 -151.7537984 139.85987372 -147.52197266 136.87353516 C-143.92948383 134.33812364 -140.33797807 131.80134 -136.74829102 129.26196289 C-128.24468977 123.24872231 -119.71650221 117.27477796 -111.13891602 111.36743164 C-118.32491524 113.32254164 -118.32491524 113.32254164 -125.50463867 115.30053711 C-141.60098813 119.76113374 -157.58637975 123.95889415 -174.13891602 126.36743164 C-175.13777832 126.5155127 -176.13664062 126.66359375 -177.16577148 126.81616211 C-215.15748713 132.27545118 -254.05336534 130.65361115 -288.63891602 112.67993164 C-289.3756958 112.2994165 -290.11247559 111.91890137 -290.87158203 111.52685547 C-296.01329748 108.74428726 -296.01329748 108.74428726 -297.13891602 105.36743164 C-295.98375488 104.91247314 -294.82859375 104.45751465 -293.63842773 103.98876953 C-279.74715534 98.49012957 -265.99847831 92.68223242 -252.26391602 86.80493164 C-249.9235221 85.80542782 -247.58302517 84.80616519 -245.24243164 83.80712891 C-240.98371087 81.98920411 -236.72524213 80.17069269 -232.4671669 78.35125637 C-224.34728396 74.88189231 -216.22423267 71.42000205 -208.09985352 67.96118164 C-207.48826511 67.70079668 -206.87667671 67.44041172 -206.24655533 67.17213631 C-203.21898988 65.88316141 -200.19138296 64.59428396 -197.16375732 63.30545044 C-191.58235499 60.9294572 -186.0011437 58.55301591 -180.42016602 56.17602539 C-178.91402489 55.5346463 -178.91402489 55.5346463 -177.37745667 54.88031006 C-170.83312679 52.09239071 -164.2938957 49.29292531 -157.76123047 46.4777832 C-154.25248049 44.99209333 -150.7291592 43.64531481 -147.13891602 42.36743164 C-146.36676758 42.07739258 -145.59461914 41.78735352 -144.79907227 41.48852539 C-143.60604492 41.05733398 -143.60604492 41.05733398 -142.38891602 40.61743164 C-141.67219727 40.35446289 -140.95547852 40.09149414 -140.21704102 39.82055664 C-138.13891602 39.36743164 -138.13891602 39.36743164 -136.32348633 39.8815918 C-133.6650542 40.47281664 -131.78679825 40.16644059 -129.10766602 39.68774414 C-127.57928101 39.41498657 -127.57928101 39.41498657 -126.02001953 39.13671875 C-124.90425537 38.924104 -123.78849121 38.71148926 -122.63891602 38.49243164 C-121.45547607 38.2675708 -120.27203613 38.04270996 -119.05273438 37.81103516 C-82.06764519 30.55210133 -42.75757492 21.04376474 -9.44848633 2.90209961 C-8.56515625 2.42530762 -7.68182617 1.94851563 -6.77172852 1.45727539 C-5.58281006 0.7881311 -5.58281006 0.7881311 -4.36987305 0.10546875 C-2.13891602 -0.63256836 -2.13891602 -0.63256836 0 0 Z " fill="#1E977A" transform="translate(390.138916015625,333.632568359375)"/>
<path d="M0 0 C3.49022667 1.308835 6.76105805 2.8826391 10.06005859 4.61401367 C46.08037601 23.38573963 85.68956752 29.87420215 126 29 C125.47015047 34.16603296 122.92064518 37.98978558 120.25 42.3125 C119.52006836 43.49803467 119.52006836 43.49803467 118.77539062 44.70751953 C110.65942897 57.58350813 100.52468062 69.04632425 90 80 C89.484375 80.53753906 88.96875 81.07507813 88.4375 81.62890625 C81.34675609 88.97532602 74.0160621 95.6604999 66 102 C64.78287387 103.00374924 63.56818244 104.01045541 62.35546875 105.01953125 C61.69780518 105.56351563 61.0401416 106.1075 60.36254883 106.66796875 C59.113051 107.70182422 57.86636276 108.7390944 56.6237793 109.78125 C43.32240921 120.70455485 28.63984788 130.00094309 14.3125 139.5 C12.70623249 140.56748609 11.10011224 141.63519381 9.49414062 142.703125 C6.56901517 144.64784408 3.64307746 146.59132627 0.71606445 148.53320312 C-2.5257349 150.68415708 -5.76379446 152.84063988 -9 155 C-8.59273682 155.94129761 -8.59273682 155.94129761 -8.17724609 156.90161133 C4.05268185 185.31303301 15.18834356 213.84591161 7 245 C5.58085567 248.50562438 3.96437227 251.77004402 2 255 C1.34 255 0.68 255 0 255 C-0.99 252.69 -1.98 250.38 -3 248 C-3.09498779 248.56807373 -3.18997559 249.13614746 -3.2878418 249.72143555 C-9.74368962 287.62511659 -9.74368962 287.62511659 -24 298 C-33 267.20960699 -33 267.20960699 -33 260 C-33.66 260 -34.32 260 -35 260 C-35.11214844 261.0003125 -35.22429687 262.000625 -35.33984375 263.03125 C-38.15484973 282.53556972 -50.59713549 301.91421664 -65.0625 314.8125 C-68 317 -68 317 -70 317 C-70.99 291.755 -70.99 291.755 -72 266 C-75.465 271.445 -75.465 271.445 -79 277 C-88.36453062 289.51803287 -99.25349276 300.09179026 -114 306 C-114.66 306 -115.32 306 -116 306 C-115.37131207 298.80428718 -113.95508105 292.01026007 -112.2421875 285 C-111.97487823 283.88310791 -111.70756897 282.76621582 -111.43215942 281.61547852 C-110.29518946 276.86519347 -109.14558617 272.11799165 -107.99658203 267.37060547 C-107.15707921 263.894015 -106.32441304 260.41583834 -105.4921875 256.9375 C-105.22767792 255.85533203 -104.96316833 254.77316406 -104.69064331 253.65820312 C-104.45354645 252.66626953 -104.21644958 251.67433594 -103.97216797 250.65234375 C-103.75978485 249.77570068 -103.54740173 248.89905762 -103.32858276 247.99584961 C-103.22015045 247.33721924 -103.11171814 246.67858887 -103 246 C-103.33 245.67 -103.66 245.34 -104 245 C-104.87140625 245.71285156 -105.7428125 246.42570313 -106.640625 247.16015625 C-119.67507225 257.6993905 -132.10862832 265.42847774 -149 268 C-148.43541117 263.54140882 -146.60157931 260.29736126 -144.25 256.5625 C-143.4222529 255.21410856 -142.59548829 253.86511368 -141.76953125 252.515625 C-141.32174316 251.78794922 -140.87395508 251.06027344 -140.41259766 250.31054688 C-137.88035818 246.16863287 -135.40830155 241.99126724 -132.9375 237.8125 C-132.12188599 236.43372681 -132.12188599 236.43372681 -131.28979492 235.02709961 C-126.4629346 226.83893521 -121.74479422 218.58977019 -117.04055786 210.33084106 C-110.68454191 199.17267897 -104.23696004 188.06996947 -97.74853516 176.98828125 C-94.68082901 171.74551063 -91.62226004 166.49741061 -88.5625 161.25 C-87.45967522 159.35935178 -86.35681201 157.46872598 -85.25390625 155.578125 C-84.46149536 154.20611938 -84.46149536 154.20611938 -83.65307617 152.80639648 C-82.51271614 150.8704286 -81.33867827 148.95404169 -80.13793945 147.05493164 C-75.83082926 140.1151659 -73.58244805 133.93107045 -72.0625 125.9375 C-69.12284265 112.04057329 -65.29300073 98.53576004 -61 85 C-60.62407715 83.81083984 -60.2481543 82.62167969 -59.86083984 81.39648438 C-58.72278802 77.83929506 -57.55536519 74.29335153 -56.375 70.75 C-56.02719482 69.67298828 -55.67938965 68.59597656 -55.32104492 67.48632812 C-52.28762184 58.61298238 -48.14746716 53.39063711 -40.75 47.6875 C-32.25165158 40.88191204 -25.00414862 33.2889324 -18.22265625 24.78515625 C-16.73368043 22.91935702 -15.22017388 21.072888 -13.68359375 19.24609375 C-8.54825601 13.13756172 -4.11342733 6.83807694 0 0 Z " fill="#2B3390" transform="translate(498,446)"/>
<path d="M0 0 C3.37793915 1.41380809 5.03716603 2.99111673 7.1796875 5.9375 C8.06756958 7.1426123 8.06756958 7.1426123 8.97338867 8.37207031 C9.60092041 9.23928711 10.22845215 10.10650391 10.875 11 C12.22121789 12.82918446 13.56890597 14.6572877 14.91796875 16.484375 C15.59907715 17.40927734 16.28018555 18.33417969 16.98193359 19.28710938 C19.98606425 23.32556811 23.08116091 27.28995068 26.1875 31.25 C36.00644604 43.80841413 36.00644604 43.80841413 40.66162109 50.21679688 C42.94562574 53.35203573 45.22254549 56.29937395 47.9453125 59.06640625 C58.44762263 70.33557983 59.41895842 85.65946896 61.84062195 100.26724243 C64.44273447 115.84138141 68.10342151 131.33002746 74 146 C74.51370984 147.30832342 75.02669664 148.61693091 75.5390625 149.92578125 C78.79028963 158.17507454 82.05050393 166.37547552 86.23046875 174.203125 C87 176 87 176 87 179 C87.66 179 88.32 179 89 179 C91.17890869 181.74381095 92.01433182 183.34073607 91.9375 186.875 C91 190 91 190 89.12890625 193.06640625 C86.54923177 197.49235823 85.31346618 202.13923561 84 207.0625 C83.48447996 208.93362267 82.96885474 210.80471637 82.453125 212.67578125 C82.20626953 213.58408691 81.95941406 214.49239258 81.70507812 215.42822266 C80.75858437 218.88056518 79.75419243 222.31401321 78.75 225.75 C74.95868798 239.06659181 72.90759086 252.55547305 71.4375 266.3125 C71.24353638 268.11509277 71.24353638 268.11509277 71.0456543 269.95410156 C69.87879484 281.2867481 69.30181687 292.61433388 69 304 C65.67888902 301.29957085 62.56150858 298.7318883 59.8125 295.4375 C56.93040419 292.04457321 53.93065936 288.79999105 50.875 285.5625 C44.00170022 278.16168104 38.00489872 270.10845171 32 262 C31.5580127 261.40993164 31.11602539 260.81986328 30.66064453 260.21191406 C13.08163698 236.69544399 -0.38332063 210.65352023 -12.375 183.9375 C-12.6622998 183.2983667 -12.94959961 182.6592334 -13.24560547 182.00073242 C-18 171.38240132 -18 171.38240132 -18 169 C-18.58773193 168.95391602 -19.17546387 168.90783203 -19.78100586 168.86035156 C-26.48828128 168.26998013 -32.97562759 167.12482516 -39.5625 165.75 C-46.33096956 164.34302228 -53.09013156 162.9632729 -59.90625 161.8046875 C-61.02185303 161.60649414 -62.13745605 161.40830078 -63.28686523 161.20410156 C-65.41296984 160.82822617 -67.54271504 160.47219929 -69.67602539 160.13964844 C-76.88595679 158.82582547 -81.02254328 156.34803252 -86 151 C-86.80308594 150.14277344 -87.60617187 149.28554687 -88.43359375 148.40234375 C-105.66259808 127.21033257 -116.89805061 104.38808678 -119 77 C-110.92898109 81.29134135 -103.10186964 85.90698399 -95.3125 90.6875 C-92.83999007 92.19899568 -90.36571789 93.70758185 -87.890625 95.21484375 C-87.25189957 95.60382843 -86.61317413 95.99281311 -85.95509338 96.39358521 C-78.52779646 100.90788463 -71.0442449 105.32677539 -63.5625 109.75 C-51.27850308 117.01495691 -39.08611343 124.40877367 -27 132 C-28.75105385 128.32357039 -30.94660755 125.4336602 -33.5 122.25 C-45.70443981 106.66089197 -55.83194385 88.85537448 -62 70 C-62.39316406 68.79988281 -62.78632813 67.59976563 -63.19140625 66.36328125 C-67.07185299 53.14798432 -66.39217836 39.64629843 -66 26 C-62.64642343 27.90138895 -59.85245372 29.87824692 -57.07421875 32.546875 C-56.35943359 33.2275 -55.64464844 33.908125 -54.90820312 34.609375 C-53.80895508 35.66898438 -53.80895508 35.66898438 -52.6875 36.75 C-47.23531226 41.97318611 -41.70767204 47.05737057 -36 52 C-34.37103946 53.45390807 -32.74541821 54.91157732 -31.125 56.375 C-30.279375 57.138125 -29.43375 57.90125 -28.5625 58.6875 C-27.716875 59.450625 -26.87125 60.21375 -26 61 C-25.195625 61.721875 -24.39125 62.44375 -23.5625 63.1875 C-18.97386445 67.30550627 -14.41288087 71.45128763 -9.875 75.625 C-5.9662434 79.21849457 -2.025582 82.76686116 1.9921875 86.23828125 C5.28336632 89.12606656 8.48923686 92.10867296 11.703125 95.08203125 C13.75619065 96.7964109 15.55989475 97.94224795 18 99 C17.49210938 98.00742188 16.98421875 97.01484375 16.4609375 95.9921875 C1.07992215 65.73297605 -10.70520421 33.78830079 0 0 Z " fill="#64B86D" transform="translate(410,41)"/>
<path d="M0 0 C4.14819485 3.93468482 7.57139532 8.18271151 11 12.75 C12.16005244 14.28132865 13.32021158 15.81257647 14.48046875 17.34375 C15.06747559 18.12105469 15.65448242 18.89835937 16.25927734 19.69921875 C18.92876602 23.22758639 21.62143509 26.73808093 24.3125 30.25 C26.54252843 33.16600825 28.77125458 36.08301106 31 39 C31.62277832 39.81484863 32.24555664 40.62969727 32.88720703 41.46923828 C40.80186099 51.82826856 48.6715083 62.21806104 56.47363281 72.66210938 C61.35018337 79.17280938 66.3199712 85.60690946 71.34619141 92.00268555 C72.4096359 93.35898336 73.46307602 94.72320322 74.50488281 96.09619141 C75.96554188 98.0145528 75.96554188 98.0145528 77.61230469 99.71240234 C79.15641126 101.46678983 80.18969765 102.80334963 81 105 C80.60116874 108.57387007 79.33751171 111.68091818 78 115 C77.52125763 116.45121772 77.05578526 117.90689912 76.60546875 119.3671875 C76.37504883 120.09333252 76.14462891 120.81947754 75.90722656 121.56762695 C70.21598076 139.813205 65.73301928 158.93678792 64 178 C63.91532471 178.92498291 63.83064941 179.84996582 63.7434082 180.80297852 C63.0546746 188.89820026 62.80811905 196.93967295 62.8125 205.0625 C62.81185547 206.31877197 62.81121094 207.57504395 62.81054688 208.86938477 C62.86191403 218.01682382 63.44403564 226.98439184 64.5625 236.05859375 C65.5752709 245.18257447 65.5752709 245.18257447 63.171875 248.59765625 C62.37265625 249.41105469 61.5734375 250.22445312 60.75 251.0625 C54.83792391 256.84977042 54.83792391 256.84977042 51 264 C51.57024902 264.27457031 52.14049805 264.54914063 52.72802734 264.83203125 C55.02183698 266.01122589 57.17180956 267.30952239 59.3515625 268.6875 C60.19436768 269.21674072 61.03717285 269.74598145 61.90551758 270.29125977 C62.80294678 270.85514404 63.70037598 271.41902832 64.625 272 C71.60050999 276.3512886 78.6187952 280.58111694 85.8125 284.5625 C86.52164551 284.95501953 87.23079102 285.34753906 87.96142578 285.75195312 C89.9665457 286.84989305 91.98017294 287.92938675 94 289 C94.6501709 289.3491748 95.3003418 289.69834961 95.97021484 290.05810547 C100.09026758 292.20606289 104.1862904 293.81068205 108.61230469 295.21386719 C111.18811322 296.06193503 113.70175039 297.01847187 116.2265625 298.0078125 C117.1134375 298.35457031 118.0003125 298.70132812 118.9140625 299.05859375 C120.73078578 299.77324138 122.54588233 300.49203739 124.359375 301.21484375 C129.28527234 303.13206618 133.72807701 304.52336039 139 305 C139 305.66 139 306.32 139 307 C139.804375 307.14695312 139.804375 307.14695312 140.625 307.296875 C148.83498408 308.86325354 156.90458938 310.93593835 165 313 C167.98715592 313.75944642 170.97382174 314.41157645 174 315 C173.88541307 316.43836751 173.75790884 317.87570966 173.625 319.3125 C173.55539062 320.11300781 173.48578125 320.91351563 173.4140625 321.73828125 C173 324 173 324 171 327 C168.01854229 327.31579303 165.29477594 327.42426574 162.3125 327.375 C161.42328857 327.36484863 160.53407715 327.35469727 159.61791992 327.34423828 C111.52829444 326.26451299 64.47228182 307.78146415 27 278 C26.10410156 277.29617188 25.20820313 276.59234375 24.28515625 275.8671875 C8.73333874 263.41680849 -6.56040097 249.33439689 -18.89453125 233.66796875 C-21.19249368 230.75607944 -23.59181403 227.94622858 -26 225.125 C-31.08549927 219.01457703 -35.63677217 212.63984473 -40 206 C-40.44569336 205.32646484 -40.89138672 204.65292969 -41.35058594 203.95898438 C-58.79481081 177.4514251 -79.77309779 144.11315526 -85.65332031 112.48608398 C-86.65346044 108.79420565 -86.65346044 108.79420565 -89.86242676 107.39816284 C-91.07378296 107.06035797 -92.28513916 106.7225531 -93.53320312 106.37451172 C-94.198946 106.17984755 -94.86468887 105.98518337 -95.55060577 105.78462029 C-96.97174387 105.37294643 -98.39679204 104.97457372 -99.82510376 104.58852386 C-101.93855555 104.01662678 -104.03852474 103.41020449 -106.13842773 102.79058838 C-110.57106239 101.49034575 -115.01892362 100.24769901 -119.46875 99.0078125 C-121.13760976 98.53998886 -122.80639027 98.07188246 -124.47509766 97.60351562 C-128.90352582 96.36169506 -133.33329148 95.12471379 -137.76339722 93.88889313 C-140.51033233 93.12211584 -143.25682775 92.35378408 -146.00317383 91.5848999 C-171.78232831 84.36764317 -197.58188651 77.22939927 -223.42773438 70.25439453 C-224.48758545 69.96773926 -225.54743652 69.68108398 -226.6394043 69.38574219 C-228.58629885 68.85951189 -230.53369298 68.33512473 -232.48168945 67.81298828 C-233.32111084 67.58611328 -234.16053223 67.35923828 -235.02539062 67.12548828 C-235.7506897 66.93060822 -236.47598877 66.73572815 -237.2232666 66.53494263 C-239 66 -239 66 -241 65 C-241.495 65.99 -241.495 65.99 -242 67 C-242.66 65.68 -243.32 64.36 -244 63 C-223.64117849 66.88313215 -203.30344138 70.87136303 -182.96972656 74.88354492 C-179.41042131 75.58574513 -175.85084484 76.28654497 -172.29101562 76.98608398 C-154.20283255 80.54095967 -136.12859663 84.12756841 -118.1131897 88.03689575 C-109.4301625 89.92009126 -100.73071517 91.66458899 -92 93.3125 C-89.39553026 93.80702361 -86.79148516 94.30370527 -84.1875 94.80078125 C-83.08792969 95.00872314 -81.98835937 95.21666504 -80.85546875 95.4309082 C-79.91316406 95.6187085 -78.97085938 95.80650879 -78 96 C-77.28320068 96.04793701 -76.56640137 96.09587402 -75.82788086 96.14526367 C-72.68460949 97.61509045 -71.85221651 100.83481903 -70.56640625 103.875 C-70.09523628 104.93672424 -70.09523628 104.93672424 -69.61454773 106.01989746 C-68.93832207 107.54569314 -68.26832155 109.07425973 -67.60388184 110.60522461 C-65.850269 114.63785578 -64.04290345 118.64624798 -62.23828125 122.65625 C-61.87809906 123.45889282 -61.51791687 124.26153564 -61.14682007 125.08850098 C-45.23992416 160.38512079 -23.10015511 196.62065441 5.40234375 223.375 C7.76872984 225.78188658 9.85869593 228.39130468 12 231 C12.07516846 229.63403687 12.07516846 229.63403687 12.15185547 228.24047852 C15.11270821 175.14319077 15.11270821 175.14319077 22.87109375 149.73828125 C23.76911927 146.76454277 24.60527112 143.79230992 25.41015625 140.79296875 C25.6623291 139.86806641 25.91450195 138.94316406 26.17431641 137.99023438 C26.66795939 136.17736762 27.15384678 134.36236344 27.63037109 132.54492188 C29.11671442 127.1723994 31.07892767 122.68009995 34.02612305 117.94018555 C35.26590614 115.85849966 35.26590614 115.85849966 34.875 112.625 C34.441875 111.325625 34.441875 111.325625 34 110 C33.67 109.01 33.34 108.02 33 107 C32.34 107 31.68 107 31 107 C24.61190679 94.90420221 19.30935563 82.54829126 15.73828125 69.30859375 C14.99867183 66.83542568 14.99867183 66.83542568 13.6015625 63.95703125 C11.40205905 58.91563183 10.29893377 53.59176758 9.0625 48.25 C8.67336426 46.59206421 8.67336426 46.59206421 8.27636719 44.90063477 C7.50764654 41.60261362 6.75113982 38.30206556 6 35 C5.68748291 33.63367432 5.68748291 33.63367432 5.36865234 32.23974609 C2.94488316 21.5435026 1.14349472 10.90833784 0 0 Z " fill="#36B8CA" transform="translate(466,113)"/>
<path d="M0 0 C2.11892022 1.55687684 3.0236509 2.85045121 4.27124023 5.15649414 C4.69880615 5.92614502 5.12637207 6.6957959 5.56689453 7.48876953 C6.01460205 8.31497803 6.46230957 9.14118652 6.92358398 9.99243164 C11.07945476 17.44765228 15.53526153 24.52879685 20.5078125 31.46557617 C23.86108398 36.17844794 23.86108398 36.17844794 23.86108398 38.36743164 C22.47851562 39.61328125 22.47851562 39.61328125 20.52124023 41.01977539 C19.4346814 41.80505615 19.4346814 41.80505615 18.32617188 42.60620117 C17.13689087 43.44707275 17.13689087 43.44707275 15.92358398 44.30493164 C15.10817139 44.8861377 14.29275879 45.46734375 13.45263672 46.06616211 C-18.79862567 68.88706695 -54.46871457 88.58389687 -91.51586914 102.37597656 C-95.47073361 103.85905074 -99.23252189 105.31420253 -102.85766602 107.49633789 C-106.30363314 109.46135962 -109.30480781 110.38163354 -113.13891602 111.36743164 C-114.7418134 111.86421008 -116.3418679 112.37021147 -117.93969727 112.88305664 C-141.66522634 120.39075082 -165.43324218 125.38218802 -190.13891602 128.36743164 C-190.98768311 128.47273193 -191.8364502 128.57803223 -192.7109375 128.68652344 C-225.30537399 132.37961852 -259.39389175 127.87820616 -288.63891602 112.67993164 C-289.3756958 112.2994165 -290.11247559 111.91890137 -290.87158203 111.52685547 C-296.01329748 108.74428726 -296.01329748 108.74428726 -297.13891602 105.36743164 C-295.98375488 104.91247314 -294.82859375 104.45751465 -293.63842773 103.98876953 C-279.74715534 98.49012957 -265.99847831 92.68223242 -252.26391602 86.80493164 C-249.9235221 85.80542782 -247.58302517 84.80616519 -245.24243164 83.80712891 C-240.98371087 81.98920411 -236.72524213 80.17069269 -232.4671669 78.35125637 C-224.34728396 74.88189231 -216.22423267 71.42000205 -208.09985352 67.96118164 C-207.48826511 67.70079668 -206.87667671 67.44041172 -206.24655533 67.17213631 C-203.21898988 65.88316141 -200.19138296 64.59428396 -197.16375732 63.30545044 C-191.58235499 60.9294572 -186.0011437 58.55301591 -180.42016602 56.17602539 C-178.91402489 55.5346463 -178.91402489 55.5346463 -177.37745667 54.88031006 C-170.83312679 52.09239071 -164.2938957 49.29292531 -157.76123047 46.4777832 C-154.25248049 44.99209333 -150.7291592 43.64531481 -147.13891602 42.36743164 C-146.36676758 42.07739258 -145.59461914 41.78735352 -144.79907227 41.48852539 C-143.60604492 41.05733398 -143.60604492 41.05733398 -142.38891602 40.61743164 C-141.67219727 40.35446289 -140.95547852 40.09149414 -140.21704102 39.82055664 C-138.13891602 39.36743164 -138.13891602 39.36743164 -136.32348633 39.8815918 C-133.6650542 40.47281664 -131.78679825 40.16644059 -129.10766602 39.68774414 C-127.57928101 39.41498657 -127.57928101 39.41498657 -126.02001953 39.13671875 C-124.90425537 38.924104 -123.78849121 38.71148926 -122.63891602 38.49243164 C-121.45547607 38.2675708 -120.27203613 38.04270996 -119.05273438 37.81103516 C-82.06764519 30.55210133 -42.75757492 21.04376474 -9.44848633 2.90209961 C-8.56515625 2.42530762 -7.68182617 1.94851563 -6.77172852 1.45727539 C-5.58281006 0.7881311 -5.58281006 0.7881311 -4.36987305 0.10546875 C-2.13891602 -0.63256836 -2.13891602 -0.63256836 0 0 Z " fill="#38A475" transform="translate(390.138916015625,333.632568359375)"/>
<path d="M0 0 C0.84691406 0.69738281 1.69382812 1.39476562 2.56640625 2.11328125 C16.30809233 13.92483737 26.47495064 28.78836084 29 47 C29.52414156 55.79953036 28.98768671 63.7096811 26.55859375 72.1953125 C25.80001875 76.00410168 26.06381736 78.59572604 28.234375 81.8515625 C28.73453125 82.43679688 29.2346875 83.02203125 29.75 83.625 C37.32835345 93.39185171 43 108.51454134 43 121 C39.56120966 119.51736128 37.35137089 117.54616114 34.6875 114.9375 C15.3282519 97.30726235 -11.0812307 90.54119345 -36.6875 89.5625 C-52.75874457 88.80735745 -67.51867145 85.2180321 -83 81 C-83 80.34 -83 79.68 -83 79 C-84.33417969 79.14888672 -84.33417969 79.14888672 -85.6953125 79.30078125 C-91.78733494 79.29618696 -97.3255368 76.44177347 -102.875 74.1875 C-105.14250417 73.28333594 -107.41072092 72.38095665 -109.6796875 71.48046875 C-110.7615332 71.04839111 -111.84337891 70.61631348 -112.95800781 70.17114258 C-115.59231973 69.15695363 -118.22389523 68.24953024 -120.9140625 67.3984375 C-124.73133752 66.16184932 -128.0379297 64.48989068 -131.5 62.4375 C-132.08185059 62.09525391 -132.66370117 61.75300781 -133.26318359 61.40039062 C-134.51696249 60.66205783 -135.76870591 59.92025933 -137.01855469 59.17529297 C-139.08979227 57.94673978 -141.1722587 56.73923107 -143.2578125 55.53515625 C-151.71482609 50.63644958 -159.94099044 45.53548132 -168 40 C-168.99 39.34 -169.98 38.68 -171 38 C-170.50440761 33.65565817 -167.70700491 30.90417071 -164.9375 27.75 C-164.14436401 26.84060669 -164.14436401 26.84060669 -163.33520508 25.9128418 C-121.5570249 -21.34266786 -54.08601517 -45.32004837 0 0 Z " fill="#A326BD" transform="translate(688,339)"/>
<path d="M0 0 C0.33 0 0.66 0 1 0 C1.125 5.75 1.125 5.75 0 8 C-0.81260853 13.37542248 -1.38548667 18.78606589 -2 24.1875 C-2.09059692 24.97412018 -2.18119385 25.76074036 -2.27453613 26.57119751 C-3.77578962 39.70414826 -4.72824408 52.77907459 -5 66 C-4.34 66 -3.68 66 -3 66 C-2.76925781 65.42507813 -2.53851563 64.85015625 -2.30078125 64.2578125 C-0.6650871 61.41867971 1.24622695 59.91148608 3.8125 57.875 C4.81410156 57.07964844 5.81570313 56.28429687 6.84765625 55.46484375 C7.37246582 55.05476074 7.89727539 54.64467773 8.43798828 54.22216797 C9.9027469 53.07609394 11.35610591 51.91549249 12.80859375 50.75390625 C26.54419331 39.93689358 41.10635239 30.13339825 55.6875 20.5 C56.37553711 20.03730713 57.06357422 19.57461426 57.77246094 19.09790039 C61.21761938 16.85540433 62.77808057 16 67 16 C75.1237241 33.22967536 81.90635787 50.13801775 85 69 C85.13148438 69.75410156 85.26296875 70.50820313 85.3984375 71.28515625 C87.64345937 86.05982719 85.83444239 102.118071 78 115 C77.34 115 76.68 115 76 115 C75.01 112.69 74.02 110.38 73 108 C72.90501221 108.56807373 72.81002441 109.13614746 72.7121582 109.72143555 C66.25631038 147.62511659 66.25631038 147.62511659 52 158 C43 127.20960699 43 127.20960699 43 120 C42.34 120 41.68 120 41 120 C40.88785156 121.0003125 40.77570313 122.000625 40.66015625 123.03125 C37.84515027 142.53556972 25.40286451 161.91421664 10.9375 174.8125 C8 177 8 177 6 177 C5.01 151.755 5.01 151.755 4 126 C0.535 131.445 0.535 131.445 -3 137 C-12.36453062 149.51803287 -23.25349276 160.09179026 -38 166 C-38.66 166 -39.32 166 -40 166 C-39.37131207 158.80428718 -37.95508105 152.01026007 -36.2421875 145 C-35.97487823 143.88310791 -35.70756897 142.76621582 -35.43215942 141.61547852 C-34.29518946 136.86519347 -33.14558617 132.11799165 -31.99658203 127.37060547 C-31.15707921 123.894015 -30.32441304 120.41583834 -29.4921875 116.9375 C-29.22767792 115.85533203 -28.96316833 114.77316406 -28.69064331 113.65820312 C-28.45354645 112.66626953 -28.21644958 111.67433594 -27.97216797 110.65234375 C-27.75978485 109.77570068 -27.54740173 108.89905762 -27.32858276 107.99584961 C-27.22015045 107.33721924 -27.11171814 106.67858887 -27 106 C-27.33 105.67 -27.66 105.34 -28 105 C-28.87140625 105.71285156 -29.7428125 106.42570313 -30.640625 107.16015625 C-43.67507225 117.6993905 -56.10862832 125.42847774 -73 128 C-72.43541117 123.54140882 -70.60157931 120.29736126 -68.25 116.5625 C-67.4222529 115.21410856 -66.59548829 113.86511368 -65.76953125 112.515625 C-65.32174316 111.78794922 -64.87395508 111.06027344 -64.41259766 110.31054688 C-61.88035818 106.16863287 -59.40830155 101.99126724 -56.9375 97.8125 C-56.39375732 96.89331787 -55.85001465 95.97413574 -55.28979492 95.02709961 C-50.4629346 86.83893521 -45.74479422 78.58977019 -41.04055786 70.33084106 C-34.68615426 59.17550949 -28.23994409 48.07580789 -21.75292969 36.99707031 C-19.90717759 33.84129695 -18.06626466 30.6827413 -16.2265625 27.5234375 C-15.60281738 26.45254883 -14.97907227 25.38166016 -14.33642578 24.27832031 C-13.15473456 22.24924243 -11.97339128 20.21996186 -10.79248047 18.19042969 C-9.19975375 15.45746084 -7.60129823 12.72795423 -6 10 C-5.43796875 9.03803711 -4.8759375 8.07607422 -4.296875 7.08496094 C-3.75546875 6.1674707 -3.2140625 5.24998047 -2.65625 4.3046875 C-1.92631836 3.06307861 -1.92631836 3.06307861 -1.18164062 1.79638672 C-0.59672852 0.90717529 -0.59672852 0.90717529 0 0 Z " fill="#FCA077" transform="translate(422,586)"/>
<path d="M0 0 C8.07102534 4.29134477 15.89807054 8.90707482 23.6875 13.6875 C26.16262288 15.20028344 28.63952312 16.71013313 31.1171875 18.21875 C31.75632584 18.60794113 32.39546417 18.99713226 33.05397034 19.39811707 C39.76353488 23.4762812 46.51590984 27.48141829 53.2729187 31.48031616 C63.57665893 37.57887604 73.87504045 43.6863609 84.125 49.875 C85.04837158 50.42760498 85.97174316 50.98020996 86.9230957 51.54956055 C92.92369201 55.18891342 98.47456186 58.8642416 102.9375 64.375 C111.17334127 73.99869923 120.33411533 83.01150634 130.28515625 90.84375 C132.73957465 92.79315857 135.11132676 94.81479613 137.47412109 96.87353516 C156.36874894 113.24733039 177.74752198 126.68576002 200 138 C198.66347939 145.31569178 196.88948396 152.49079148 195 159.6796875 C192.62790374 169.40632816 191.49960457 179.37338566 190.4375 189.3125 C190.24353638 191.11509277 190.24353638 191.11509277 190.0456543 192.95410156 C188.87879484 204.2867481 188.30181687 215.61433388 188 227 C184.67888902 224.29957085 181.56150858 221.7318883 178.8125 218.4375 C175.93040419 215.04457321 172.93065936 211.79999105 169.875 208.5625 C163.00170022 201.16168104 157.00489872 193.10845171 151 185 C150.5580127 184.40993164 150.11602539 183.81986328 149.66064453 183.21191406 C132.08163698 159.69544399 118.61667937 133.65352023 106.625 106.9375 C106.3377002 106.2983667 106.05040039 105.6592334 105.75439453 105.00073242 C101 94.38240132 101 94.38240132 101 92 C100.41226807 91.95391602 99.82453613 91.90783203 99.21899414 91.86035156 C92.51171872 91.26998013 86.02437241 90.12482516 79.4375 88.75 C72.66903044 87.34302228 65.90986844 85.9632729 59.09375 84.8046875 C57.97814697 84.60649414 56.86254395 84.40830078 55.71313477 84.20410156 C53.58703016 83.82822617 51.45728496 83.47219929 49.32397461 83.13964844 C42.11404321 81.82582547 37.97745672 79.34803252 33 74 C31.79537109 72.71416016 31.79537109 72.71416016 30.56640625 71.40234375 C13.33740192 50.21033257 2.10194939 27.38808678 0 0 Z " fill="#328B60" transform="translate(291,118)"/>
<path d="M0 0 C1.5617377 2.57297782 3.09906742 5.15591462 4.625 7.75 C5.07101562 8.47960937 5.51703125 9.20921875 5.9765625 9.9609375 C6.3890625 10.66992188 6.8015625 11.37890625 7.2265625 12.109375 C7.80784912 13.08342285 7.80784912 13.08342285 8.40087891 14.07714844 C9 16 9 16 8.41748047 18.08105469 C6.58311571 20.56436627 4.90840745 21.33186865 2.09375 22.59375 C1.05822998 23.06055176 0.02270996 23.52735352 -1.04418945 24.00830078 C-2.18460693 24.50056152 -3.32502441 24.99282227 -4.5 25.5 C-5.69906982 26.02190918 -6.89813965 26.54381836 -8.13354492 27.08154297 C-45.49991417 43.13989233 -90.92958297 60 -132 60 C-133.38735732 60.61884196 -134.76060083 61.26956243 -136.125 61.9375 C-142.87148128 64.73050391 -149.75209286 64.69939952 -156.93505859 64.91894531 C-159.8204657 65.03220556 -162.68699385 65.30268626 -165.5625 65.5625 C-218.1829073 69.26563877 -277.30622875 62.6271589 -318.96484375 27.5 C-323.99745929 23.09557911 -323.99745929 23.09557911 -326 21 C-326 20.34 -326 19.68 -326 19 C-323.23749964 17.61874982 -321.05268901 17.80920694 -318 18 C-317.34 18.66 -316.68 19.32 -316 20 C-313.00907552 20.43736291 -310.08637496 20.75671362 -307.078125 21 C-306.15006042 21.08121094 -305.22199585 21.16242188 -304.26580811 21.24609375 C-302.27197844 21.41842201 -300.27775477 21.58623951 -298.28320312 21.75 C-295.38562252 21.98882184 -292.48976067 22.24293387 -289.59375 22.5 C-259.14685623 25.13245068 -228.71277336 26.34752518 -198.15795898 26.26074219 C-194.11203114 26.24931993 -190.06636586 26.25617074 -186.02044678 26.26762009 C-169.37943137 26.30748078 -152.79167378 26.05180441 -136.17578125 25.09375 C-135.4761709 25.05385201 -134.77656055 25.01395401 -134.05574989 24.97284698 C-91.05320684 22.45740779 -46.74433328 15.68738349 -6.10546875 1.03125 C-3 0 -3 0 0 0 Z " fill="#51B071" transform="translate(380,315)"/>
<path d="M0 0 C7.51337283 0.54688394 14.79142226 1.57769432 22.17529297 3.05371094 C23.23200699 3.26040405 24.28872101 3.46709717 25.37745667 3.68005371 C28.83368977 4.35831102 32.28806312 5.04546399 35.7421875 5.734375 C36.92840824 5.96993355 38.11462898 6.2054921 39.33679581 6.44818878 C45.60084492 7.69235397 51.86347765 8.94337783 58.125 10.20019531 C64.58791282 11.49606243 71.05520005 12.76855142 77.52377129 14.03582382 C82.50716697 15.01646414 87.48703819 16.01415199 92.46609879 17.01654816 C94.8498513 17.49337113 97.23489745 17.96377383 99.62121201 18.42760468 C102.9517416 19.07663336 106.27656177 19.74962836 109.60107422 20.42871094 C111.07703316 20.70796417 111.07703316 20.70796417 112.58280945 20.99285889 C118.19095739 22.16954782 121.26085753 23.39097603 125 28 C138.14428242 39.73530433 152.31858933 50.04962172 166.96923828 59.81201172 C167.74122559 60.33037598 168.51321289 60.84874023 169.30859375 61.3828125 C169.99751709 61.84059082 170.68644043 62.29836914 171.39624023 62.77001953 C173 64 173 64 174 66 C175.64363134 66.72159424 177.31050386 67.39351421 179 68 C179 68.66 179 69.32 179 70 C179.72703125 70.10441406 180.4540625 70.20882812 181.203125 70.31640625 C184.25464651 71.06223902 186.17010987 72.16707204 188.75 73.9375 C189.52859375 74.46214844 190.3071875 74.98679687 191.109375 75.52734375 C193 77 193 77 194 79 C195.84736179 79.72965131 195.84736179 79.72965131 198.0625 80.3125 C202.26037398 81.61597998 205.57236403 83.42113235 209.17578125 85.9140625 C211.1092381 87.06502825 212.80329237 87.56356802 215 88 C215 88.66 215 89.32 215 90 C216.1446875 90.0928125 216.1446875 90.0928125 217.3125 90.1875 C221.60152543 91.1325395 225.16400062 92.80196225 229.125 94.6640625 C235.58639616 97.66650474 242.10516628 100.20134773 249 102 C249 102.66 249 103.32 249 104 C211.2159797 104.5557731 174.8249253 100.49041835 138 92 C136.17971962 91.58709796 134.35940966 91.17432626 132.5390625 90.76171875 C121.42469215 88.21234607 121.42469215 88.21234607 119 87 C116.795636 86.77049681 114.58607827 86.58924067 112.375 86.4375 C111.18648438 86.35371094 109.99796875 86.26992187 108.7734375 86.18359375 C107.85820312 86.12300781 106.94296875 86.06242187 106 86 C106.33 85.34 106.66 84.68 107 84 C105.98969727 83.60844727 105.98969727 83.60844727 104.95898438 83.20898438 C91.65039242 78.02888485 78.60914653 72.71606056 66 66 C65.05898437 65.52433594 64.11796875 65.04867187 63.1484375 64.55859375 C51.57491887 58.5669934 40.61522011 50.98637311 31.15234375 42.02734375 C29.1892282 40.17823854 27.15978298 38.504674 25.0625 36.8125 C14.47221114 27.50329447 4.47719462 13.43158385 0 0 Z " fill="#8ECC66" transform="translate(102,153)"/>
<path d="M0 0 C1.17374173 2.43431639 2.33915763 4.87204182 3.5 7.3125 C4.00080078 8.34793945 4.00080078 8.34793945 4.51171875 9.40429688 C7 14.66015625 7 14.66015625 7 18 C-51.90008899 40.86461415 -117.03431254 45.19333311 -179.5456543 45.18530273 C-182.8634189 45.18522215 -186.18104341 45.19207302 -189.4987793 45.20581055 C-221.20921895 45.33474153 -252.76289079 44.06040308 -284.35522461 41.25 C-287.31602478 40.98865534 -290.27797605 40.74421162 -293.24023438 40.5 C-295.15373031 40.33430608 -297.06714603 40.16768229 -298.98046875 40 C-299.85197067 39.92910156 -300.7234726 39.85820312 -301.62138367 39.78515625 C-305.45472117 39.43223176 -307.74303465 39.17131023 -311 37 C-310.67 36.34 -310.34 35.68 -310 35 C-307.52318082 34.37102066 -305.11072138 33.87153562 -302.59838867 33.43115234 C-301.81956581 33.28751755 -301.04074295 33.14388275 -300.2383194 32.99589539 C-297.63298198 32.51757973 -295.02555573 32.05182034 -292.41796875 31.5859375 C-290.58692068 31.25220638 -288.7560157 30.91768933 -286.92524719 30.58242798 C-282.02584357 29.68750048 -277.12455834 28.8033285 -272.2227478 27.92169189 C-267.19055538 27.01532148 -262.15979004 26.10110108 -257.12890625 25.1875 C-251.18067624 24.10776516 -245.2322846 23.02896343 -239.28305054 21.95477295 C-228.83263566 20.06690504 -218.38944576 18.14934281 -207.95703125 16.1640625 C-205.01129311 15.60816748 -202.06542174 15.05298316 -199.11953735 14.49786377 C-197.40283587 14.17159109 -195.68695254 13.84097692 -193.97201538 13.5055542 C-181.58104993 11.08500804 -169.75729674 10.07805668 -157.15234375 11.74169922 C-103.27639093 18.20730245 -51.97360735 -1.40469209 0 0 Z " fill="#318B60" transform="translate(372,297)"/>
<path d="M0 0 C2.75869692 1.96949915 3.95249211 4.48882738 5.58056641 7.43188477 C6.19416016 8.52758789 6.80775391 9.62329102 7.43994141 10.75219727 C7.89884766 11.59524414 8.35775391 12.43829102 8.83056641 13.30688477 C-29.33435225 38.75016387 -72.74250408 56.20435973 -116.16943359 70.30688477 C-117.10126465 70.6149707 -118.0330957 70.92305664 -118.99316406 71.24047852 C-168.57316764 87.54671028 -220.89738692 97.25898277 -272.54443359 104.18188477 C-273.44129883 104.30225098 -274.33816406 104.42261719 -275.26220703 104.54663086 C-279.93998386 105.13753686 -284.45472566 105.42125773 -289.16943359 105.30688477 C-288.14688861 102.2276629 -287.31320716 101.38507383 -284.4152832 99.80908203 C-283.22942627 99.335271 -282.04356934 98.86145996 -280.82177734 98.37329102 C-279.82914886 97.96883759 -279.82914886 97.96883759 -278.81646729 97.55621338 C-277.36000021 96.96418041 -275.9010502 96.37822921 -274.44003296 95.79751587 C-270.34341007 94.16783684 -266.26601482 92.49093897 -262.18505859 90.82250977 C-261.30452316 90.46401443 -260.42398773 90.1055191 -259.51676941 89.73616028 C-249.77117232 85.75951078 -240.10264168 81.60643783 -230.43505859 77.44448853 C-225.25958192 75.21649466 -220.08152884 72.99450221 -214.90380859 70.77172852 C-213.86518677 70.32568771 -212.82656494 69.87964691 -211.75646973 69.42008972 C-200.91643515 64.76596715 -190.06842993 60.13061451 -179.21548462 55.50668335 C-177.16244481 54.63172128 -175.10968445 53.7561032 -173.05722046 52.87979126 C-170.20862726 51.66368467 -167.35908671 50.44982566 -164.50927734 49.23657227 C-163.67813416 48.88127945 -162.84699097 48.52598663 -161.99066162 48.15992737 C-157.09252958 46.07840054 -152.16476068 44.14337702 -147.16943359 42.30688477 C-146.30833984 41.98204102 -145.44724609 41.65719727 -144.56005859 41.32250977 C-143.85365234 41.06985352 -143.14724609 40.81719727 -142.41943359 40.55688477 C-141.70271484 40.29391602 -140.98599609 40.03094727 -140.24755859 39.76000977 C-138.16943359 39.30688477 -138.16943359 39.30688477 -136.35400391 39.82104492 C-133.69557178 40.41226977 -131.81731583 40.10589372 -129.13818359 39.62719727 C-127.60979858 39.3544397 -127.60979858 39.3544397 -126.05053711 39.07617188 C-124.93477295 38.86355713 -123.81900879 38.65094238 -122.66943359 38.43188477 C-121.48599365 38.20702393 -120.30255371 37.98216309 -119.08325195 37.75048828 C-82.09816277 30.49155446 -42.7880925 20.98321787 -9.47900391 2.84155273 C-8.59567383 2.36476074 -7.71234375 1.88796875 -6.80224609 1.39672852 C-5.61332764 0.72758423 -5.61332764 0.72758423 -4.40039062 0.04492188 C-2.16943359 -0.69311523 -2.16943359 -0.69311523 0 0 Z " fill="#1F8264" transform="translate(390.16943359375,333.693115234375)"/>
<path d="M0 0 C31.68509154 -0.16725117 63.36535773 0.08546381 95.04863739 0.40571976 C98.24296514 0.43743016 101.43730467 0.4674637 104.63165283 0.49703979 C109.75056229 0.5447219 114.86940453 0.59707002 119.98823166 0.65287781 C121.89536464 0.67306094 123.80251307 0.6918415 125.70967484 0.70909119 C153.9476149 0.96859412 153.9476149 0.96859412 161 4 C163.48093785 4.64391288 165.94966837 5.24528638 168.44921875 5.8046875 C169.17088226 5.96876099 169.89254578 6.13283447 170.63607788 6.30187988 C172.9851905 6.83256057 175.33601257 7.35494835 177.6875 7.875 C178.49178436 8.05363586 179.29606873 8.23227173 180.12472534 8.4163208 C194.327159 11.55587484 208.55393287 14.23800074 223 16 C223.65825775 16.08074768 224.3165155 16.16149536 224.99472046 16.24468994 C238.37007941 17.85408273 251.73182143 18.58032569 265.1875 19.125 C267.22072621 19.2116999 269.25392959 19.29893681 271.28710938 19.38671875 C276.19116643 19.5973085 281.09547047 19.80073046 286 20 C286.33 19.34 286.66 18.68 287 18 C289.82378039 19.03538614 290.8243145 19.66619755 292.25 22.375 C293 25 293 25 293 29 C279.23792945 33.12631596 265.17304786 35.73012827 251 38 C249.94232422 38.16951172 248.88464844 38.33902344 247.79492188 38.51367188 C230.32897102 41.14612601 212.87777582 41.28467169 195.25 41.3125 C193.5820639 41.31801376 193.5820639 41.31801376 191.88043213 41.32363892 C175.82863104 41.35131699 159.9780968 40.50536872 144 39 C142.99983856 38.90919159 141.99967712 38.81838318 140.96920776 38.724823 C93.326811 34.37611764 43.7492974 21.37285603 0 2 C0 1.34 0 0.68 0 0 Z " fill="#35885A" transform="translate(65,237)"/>
<path d="M0 0 C4.28383882 1.42794627 5.56347473 4.37813811 8 8 C3.89938367 12.88584074 -0.34762798 17.50869771 -4.875 22 C-5.49503906 22.61665527 -6.11507812 23.23331055 -6.75390625 23.86865234 C-11.02886075 28.09543518 -15.39973736 32.12914838 -20 36 C-21.04675467 36.90879689 -22.09220338 37.81909904 -23.13671875 38.73046875 C-30.87068836 45.45919582 -38.76403635 51.89342012 -47 58 C-47.67546875 58.50144531 -48.3509375 59.00289063 -49.046875 59.51953125 C-59.76730216 67.44416356 -70.70919392 74.91422181 -82 82 C-82.73750488 82.46680176 -83.47500977 82.93360352 -84.23486328 83.41455078 C-118.42249962 105.00712936 -173.48527922 135.1849853 -215 133 C-212.51544841 127.48103703 -208.14383289 125.05979934 -203.25 121.875 C-201.51294459 120.71690848 -199.77728139 119.55672621 -198.04296875 118.39453125 C-197.18364746 117.82041504 -196.32432617 117.24629883 -195.43896484 116.65478516 C-192.08107629 114.37653004 -188.81551818 111.98714067 -185.5625 109.5625 C-177.32708999 103.45050972 -168.9085273 97.60705982 -160.49560547 91.74316406 C-156.55046051 88.98750617 -152.61809392 86.21385805 -148.6875 83.4375 C-148.01283691 82.96127197 -147.33817383 82.48504395 -146.64306641 81.99438477 C-143.49339641 79.76920344 -140.35091264 77.53492115 -137.21875 75.28515625 C-132.16184972 71.69500253 -127.20904594 69.03233223 -121.49609375 66.67578125 C-120.4289917 66.23443848 -119.36188965 65.7930957 -118.26245117 65.33837891 C-116.21043474 64.49656539 -114.15736077 63.65732056 -112.1027832 62.82177734 C-75.19115682 47.81064695 -39.41533204 29.41165913 -7.5 5.3828125 C-6.51 4.63773437 -5.52 3.89265625 -4.5 3.125 C-3.6853125 2.48820312 -2.870625 1.85140625 -2.03125 1.1953125 C-1.3609375 0.80085938 -0.690625 0.40640625 0 0 Z " fill="#107964" transform="translate(414,371)"/>
<path d="M0 0 C3.37793915 1.41380809 5.03716603 2.99111673 7.1796875 5.9375 C7.77160889 6.7409082 8.36353027 7.54431641 8.97338867 8.37207031 C9.60092041 9.23928711 10.22845215 10.10650391 10.875 11 C12.22121789 12.82918446 13.56890597 14.6572877 14.91796875 16.484375 C15.59907715 17.40927734 16.28018555 18.33417969 16.98193359 19.28710938 C19.98606425 23.32556811 23.08116091 27.28995068 26.1875 31.25 C36.00644604 43.80841413 36.00644604 43.80841413 40.66162109 50.21679688 C42.94562574 53.35203573 45.22254549 56.29937395 47.9453125 59.06640625 C58.44762263 70.33557983 59.41895842 85.65946896 61.84062195 100.26724243 C64.44273447 115.84138141 68.10342151 131.33002746 74 146 C74.51370984 147.30832342 75.02669664 148.61693091 75.5390625 149.92578125 C78.79028963 158.17507454 82.05050393 166.37547552 86.23046875 174.203125 C87 176 87 176 87 179 C87.66 179 88.32 179 89 179 C89.33 179.99 89.66 180.98 90 182 C86.0963081 180.38275621 83.28379008 177.7311819 80.25 174.875 C79.6921582 174.35365479 79.13431641 173.83230957 78.55957031 173.29516602 C67.71246183 163.08393278 57.16693145 152.7696852 48 141 C47.08619791 139.88436625 46.16933783 138.77123269 45.25 137.66015625 C33.50492002 123.38486043 22.25292044 108.00207518 14.0625 91.375 C13.55046021 90.33859375 13.55046021 90.33859375 13.02807617 89.28125 C-0.79663125 61.03033911 -9.81997623 30.99429998 0 0 Z " fill="#8ECC66" transform="translate(410,41)"/>
<path d="M0 0 C0.33 0 0.66 0 1 0 C1.125 5.75 1.125 5.75 0 8 C-0.81260853 13.37542248 -1.38548667 18.78606589 -2 24.1875 C-2.09059692 24.97412018 -2.18119385 25.76074036 -2.27453613 26.57119751 C-3.77578962 39.70414826 -4.72824408 52.77907459 -5 66 C-4.34 66 -3.68 66 -3 66 C-2.61714844 65.11054687 -2.61714844 65.11054687 -2.2265625 64.203125 C-0.88183502 61.78775462 0.49214367 60.48788294 2.625 58.75 C3.57246094 57.96882812 3.57246094 57.96882812 4.5390625 57.171875 C5.02117187 56.78515625 5.50328125 56.3984375 6 56 C6.66 56.33 7.32 56.66 8 57 C7.51015625 57.34160156 7.0203125 57.68320312 6.515625 58.03515625 C4.25836437 60.96145031 4.64155685 63.90293103 4.75 67.4375 C4.77320313 69.41556641 4.77320313 69.41556641 4.796875 71.43359375 C4.87020698 74.75853752 4.87020698 74.75853752 5.50340271 76.94923401 C6.03895793 79.16088208 6.13613968 81.10481831 6.14868164 83.37866211 C6.15726952 84.66666969 6.15726952 84.66666969 6.16603088 85.98069763 C6.15774483 89.92531206 6.1326771 93.86934964 6.08764648 97.8137207 C6.07101241 99.8800601 6.07011004 101.94659186 6.08569336 104.01293945 C6.18035559 117.27309678 5.73161086 126.44153719 -3 137 C-3.49298584 137.67329346 -3.98597168 138.34658691 -4.49389648 139.0402832 C-13.18033724 150.79841217 -24.34862759 160.53055763 -38 166 C-38.66 166 -39.32 166 -40 166 C-39.37131207 158.80428718 -37.95508105 152.01026007 -36.2421875 145 C-35.97487823 143.88310791 -35.70756897 142.76621582 -35.43215942 141.61547852 C-34.29518946 136.86519347 -33.14558617 132.11799165 -31.99658203 127.37060547 C-31.15707921 123.894015 -30.32441304 120.41583834 -29.4921875 116.9375 C-29.22767792 115.85533203 -28.96316833 114.77316406 -28.69064331 113.65820312 C-28.45354645 112.66626953 -28.21644958 111.67433594 -27.97216797 110.65234375 C-27.75978485 109.77570068 -27.54740173 108.89905762 -27.32858276 107.99584961 C-27.22015045 107.33721924 -27.11171814 106.67858887 -27 106 C-27.33 105.67 -27.66 105.34 -28 105 C-28.87140625 105.71285156 -29.7428125 106.42570313 -30.640625 107.16015625 C-43.67507225 117.6993905 -56.10862832 125.42847774 -73 128 C-72.43541117 123.54140882 -70.60157931 120.29736126 -68.25 116.5625 C-67.4222529 115.21410856 -66.59548829 113.86511368 -65.76953125 112.515625 C-65.32174316 111.78794922 -64.87395508 111.06027344 -64.41259766 110.31054688 C-61.88035818 106.16863287 -59.40830155 101.99126724 -56.9375 97.8125 C-56.39375732 96.89331787 -55.85001465 95.97413574 -55.28979492 95.02709961 C-50.4629346 86.83893521 -45.74479422 78.58977019 -41.04055786 70.33084106 C-34.68615426 59.17550949 -28.23994409 48.07580789 -21.75292969 36.99707031 C-19.90717759 33.84129695 -18.06626466 30.6827413 -16.2265625 27.5234375 C-15.60281738 26.45254883 -14.97907227 25.38166016 -14.33642578 24.27832031 C-13.15473456 22.24924243 -11.97339128 20.21996186 -10.79248047 18.19042969 C-9.19975375 15.45746084 -7.60129823 12.72795423 -6 10 C-5.43796875 9.03803711 -4.8759375 8.07607422 -4.296875 7.08496094 C-3.75546875 6.1674707 -3.2140625 5.24998047 -2.65625 4.3046875 C-1.92631836 3.06307861 -1.92631836 3.06307861 -1.18164062 1.79638672 C-0.59672852 0.90717529 -0.59672852 0.90717529 0 0 Z " fill="#FA888E" transform="translate(422,586)"/>
<path d="M0 0 C0.84691406 0.69738281 1.69382812 1.39476562 2.56640625 2.11328125 C12.30005654 10.47976234 20.25969616 19.95405141 25 32 C25 32.99 25 33.98 25 35 C22.35474197 34.04476793 20.18876915 33.14300693 17.9375 31.4375 C15.92312271 29.94296201 14.44506011 29.43661788 12 29 C12 28.34 12 27.68 12 27 C11.3709375 26.82984375 10.741875 26.6596875 10.09375 26.484375 C5.85406738 25.28398293 1.84705884 24.05350565 -2.0625 22 C-9.43954876 18.13513182 -17.27121129 16.39300313 -25.375 14.6484375 C-28 14 -28 14 -29 13 C-30.90899657 12.62522767 -32.8278409 12.30004435 -34.75 12 C-40.82424594 11.0424834 -40.82424594 11.0424834 -43.14526367 10.48144531 C-47.02432868 9.82724911 -50.82621286 9.81752659 -54.75390625 9.796875 C-55.60943588 9.79117493 -56.46496552 9.78547485 -57.34642029 9.77960205 C-59.16281915 9.77016659 -60.97923502 9.76362385 -62.7956543 9.75976562 C-65.5014713 9.7502154 -68.20647557 9.71924637 -70.91210938 9.6875 C-91.0472127 9.56505828 -110.91177455 12.5660479 -129.94140625 19.29296875 C-132.21165036 20.07269206 -134.50279924 20.72186187 -136.8125 21.375 C-145.25812376 23.87983562 -153.27771511 27.60304381 -161.2578125 31.30078125 C-163 32 -163 32 -165 32 C-165 32.66 -165 33.32 -165 34 C-166.98 34.66 -168.96 35.32 -171 36 C-165.88009598 28.80445922 -160.05805869 22.39860045 -154 16 C-153.29182129 15.24082275 -153.29182129 15.24082275 -152.56933594 14.46630859 C-113.00448124 -27.77699159 -46.57042072 -39.02254054 0 0 Z " fill="#E17FB9" transform="translate(688,339)"/>
<path d="M0 0 C3.54716481 1.62156105 6.57506545 3.74370133 9.75 6 C16.00751595 10.39288904 22.429395 14.47099063 28.9375 18.48046875 C31.52372783 20.07420716 34.08476135 21.69728958 36.625 23.36328125 C45.0489804 28.84619861 53.78197164 33.66188108 62.6875 38.3125 C64.36162964 39.19276855 64.36162964 39.19276855 66.06958008 40.09082031 C73.55680049 43.95042815 81.08084458 47.13784096 89 50 C89.66 49.01 90.32 48.02 91 47 C90.51696423 50.78378019 89.92380668 54.47099559 89.0625 58.1875 C86.79598372 68.11826038 85.51882543 78.19351789 84.4375 88.3125 C84.30819092 89.51422852 84.17888184 90.71595703 84.0456543 91.95410156 C82.87879484 103.2867481 82.30181687 114.61433388 82 126 C78.67888902 123.29957085 75.56150858 120.7318883 72.8125 117.4375 C69.93040419 114.04457321 66.93065936 110.79999105 63.875 107.5625 C57.00170022 100.16168104 51.00489872 92.10845171 45 84 C44.5580127 83.40993164 44.11602539 82.81986328 43.66064453 82.21191406 C27.36171664 60.40788167 14.3123135 36.33569941 3.125 11.5625 C2.79717529 10.84167236 2.46935059 10.12084473 2.1315918 9.37817383 C0.63523329 5.95440187 0 3.80564463 0 0 Z " fill="#018980" transform="translate(397,219)"/>
<path d="M0 0 C4.46602998 0.43150048 7.06069953 3.54032318 10.125 6.5 C11.28727635 7.5981688 12.45004158 8.6958204 13.61328125 9.79296875 C14.18643066 10.33743652 14.75958008 10.8819043 15.35009766 11.44287109 C20.40634215 16.21480471 25.62650485 20.81624548 30.875 25.375 C34.78994583 28.78479153 38.61177396 32.29339963 42.43261719 35.80761719 C46.45179264 39.50303276 50.49902409 43.16579085 54.5625 46.8125 C57.08760867 49.07862316 59.60616628 51.35190615 62.125 53.625 C65.10891336 56.31052203 68.10382121 58.98146856 71.125 61.625 C71.76953125 62.19347656 72.4140625 62.76195312 73.078125 63.34765625 C74.33398495 64.4273895 75.61497677 65.47873192 76.921875 66.49609375 C83.67326723 71.91071032 88.16620257 78.93033797 93 86 C105.65434494 104.35552569 120.04293646 121.0693687 135.75 136.875 C136.36415771 137.49391113 136.97831543 138.11282227 137.61108398 138.75048828 C144.48540013 146.11041663 144.48540013 146.11041663 153 151 C154.01911045 154.89114901 154.16782969 156.60596507 152.5625 160.375 C152.046875 161.24125 151.53125 162.1075 151 163 C150.50628906 162.43152344 150.01257813 161.86304688 149.50390625 161.27734375 C146.27814552 158.34346153 142.78233454 156.57522387 138.9375 154.5625 C120.23330785 144.4555862 102.99891545 131.70835397 87.43359375 117.25 C85.38995851 115.36053949 83.31195682 113.54658082 81.1875 111.75 C72.15615186 103.8942199 63.68617073 95.16825746 56 86 C54.82824219 84.66195312 54.82824219 84.66195312 53.6328125 83.296875 C34.43420629 61.25903829 18.12404804 36.47877027 4.4375 10.6875 C3.99519043 9.85613525 3.55288086 9.02477051 3.09716797 8.16821289 C2.69256348 7.39469482 2.28795898 6.62117676 1.87109375 5.82421875 C1.50943115 5.13416748 1.14776855 4.44411621 0.77514648 3.7331543 C0 2 0 2 0 0 Z " fill="#35885B" transform="translate(348,72)"/>
<path d="M0 0 C3.49022667 1.308835 6.76105805 2.8826391 10.06005859 4.61401367 C34.63149957 17.41924109 61.53401886 24.82840864 89 28 C85.57186321 30.28542452 83.86466347 30.37455723 79.8046875 30.67578125 C78.54374268 30.77866455 77.28279785 30.88154785 75.98364258 30.98754883 C75.3139444 31.03988678 74.64424622 31.09222473 73.95425415 31.14614868 C35.63725332 34.21171121 -5.86944723 43.69748833 -36 69 C-36.86882812 69.72960937 -37.73765625 70.45921875 -38.6328125 71.2109375 C-47.02163625 78.52229765 -54.44333617 86.3206501 -60 96 C-60.66 95.67 -61.32 95.34 -62 95 C-62.28597384 87.87891217 -60.36564917 82.08075697 -58.05712891 75.46630859 C-57.37882541 73.51102716 -56.72969437 71.5476421 -56.08203125 69.58203125 C-52.76821139 59.79716134 -48.90048569 53.97118283 -40.75 47.6875 C-32.25165158 40.88191204 -25.00414862 33.2889324 -18.22265625 24.78515625 C-16.73368043 22.91935702 -15.22017388 21.072888 -13.68359375 19.24609375 C-8.54825601 13.13756172 -4.11342733 6.83807694 0 0 Z " fill="#013881" transform="translate(498,446)"/>
<path d="M0 0 C0.43570313 0.37511719 0.87140625 0.75023437 1.3203125 1.13671875 C2.21363281 1.90435547 2.21363281 1.90435547 3.125 2.6875 C4.07439453 3.50541016 4.07439453 3.50541016 5.04296875 4.33984375 C6.81640213 5.8442533 8.62132079 7.29792354 10.4375 8.75 C11.283125 9.4925 12.12875 10.235 13 11 C13 13 13 13 10.84106445 15.28173828 C9.90351318 16.17876465 8.96596191 17.07579102 8 18 C6.18058939 19.83033145 4.36160315 21.6610848 2.54296875 23.4921875 C0.9651599 25.07738211 -0.61313633 26.66208966 -2.19165039 28.24658203 C-3.26775379 29.32771017 -4.34295744 30.40973467 -5.41723633 31.49267578 C-11.4284669 37.55090509 -17.47129335 43.49299295 -24 49 C-25.02167399 49.88835703 -26.0425545 50.77762774 -27.0625 51.66796875 C-35.42655258 58.84192343 -44.08103696 65.53073663 -53 72 C-53.7513623 72.54527344 -54.50272461 73.09054687 -55.27685547 73.65234375 C-72.76053595 86.26710509 -90.97401495 97.67752976 -109.6875 108.375 C-110.64954346 108.92873291 -111.61158691 109.48246582 -112.6027832 110.05297852 C-113.50085693 110.55885498 -114.39893066 111.06473145 -115.32421875 111.5859375 C-116.5011731 112.25181885 -116.5011731 112.25181885 -117.7019043 112.93115234 C-120.13367292 114.06217147 -122.3589237 114.58235772 -125 115 C-121.95726029 108.99457983 -118.14050804 104.74262817 -113.34765625 100.0546875 C-112.61050888 99.32178497 -111.87336151 98.58888245 -111.11387634 97.83377075 C-108.77041001 95.50699619 -106.41672064 93.19088771 -104.0625 90.875 C-102.48433311 89.31189721 -100.90685213 87.74810159 -99.33007812 86.18359375 C-95.80456292 82.68779325 -92.27459161 79.19665778 -88.73147583 75.71868896 C-87.63386122 74.62918018 -86.54726673 73.52836091 -85.47628784 72.41265869 C-84.3513427 71.24165236 -83.18042249 70.11506059 -82 69 C-81.34 69 -80.68 69 -80 69 C-79.82082031 68.44570313 -79.64164062 67.89140625 -79.45703125 67.3203125 C-77.264731 63.82908905 -74.10352323 62.09563273 -70.6875 59.875 C-63.20323877 54.87594161 -56.07252025 49.56039819 -49 44 C-47.45857739 42.81218322 -45.91693406 41.62465277 -44.375 40.4375 C-35.08641055 33.17551188 -26.25217185 25.58369412 -17.64941406 17.53173828 C-15.99483194 15.99520065 -14.32503396 14.47730818 -12.6484375 12.96484375 C-11.83910767 12.23273682 -11.83910767 12.23273682 -11.01342773 11.48583984 C-9.53019212 10.14621728 -8.04447459 8.80934417 -6.55859375 7.47265625 C-4.1241688 5.11999825 -2.04667955 2.69198557 0 0 Z " fill="#0C715F" transform="translate(442,402)"/>
<path d="M0 0 C2.9375 1.25 2.9375 1.25 6 3 C6.36016047 4.32633831 6.69136872 5.66073318 7 7 C8.21489319 8.71270592 8.21489319 8.71270592 9.79443359 10.30175781 C10.38221588 10.92443542 10.96999817 11.54711304 11.57559204 12.18865967 C12.21838104 12.85343323 12.86117004 13.51820679 13.5234375 14.203125 C14.19176605 14.90447571 14.8600946 15.60582642 15.54867554 16.32843018 C22.44497537 23.53390797 29.46567426 30.61760458 36.52880859 37.65917969 C38.66233724 39.78724157 40.79032583 41.92074261 42.91796875 44.0546875 C44.29134536 45.42740487 45.66503131 46.79981284 47.0390625 48.171875 C47.66616119 48.80099792 48.29325989 49.43012085 48.93936157 50.07830811 C52.1532032 53.2750336 55.41220164 56.21697851 59 59 C60.68933922 60.6436814 62.35259924 62.3142876 64 64 C65.37191372 65.39886684 66.7471217 66.79450786 68.125 68.1875 C68.78757812 68.86167969 69.45015625 69.53585938 70.1328125 70.23046875 C72.07943317 72.17553358 72.07943317 72.17553358 75 74 C75 74.66 75 75.32 75 76 C75.53109375 76.22429687 76.0621875 76.44859375 76.609375 76.6796875 C79.8110886 78.44795416 82.48147104 80.76049081 85.25 83.125 C85.80429687 83.59292969 86.35859375 84.06085938 86.9296875 84.54296875 C88.28947326 85.69175328 89.64515165 86.84539653 91 88 C90.34 88.66 89.68 89.32 89 90 C87.05541992 89.86987305 87.05541992 89.86987305 84.54296875 89.32421875 C80.19548622 88.43600815 75.85256842 87.62624181 71.47439575 86.90945435 C68.24612049 86.37632515 65.02394032 85.81019697 61.80151367 85.24291992 C60.13843148 84.9553266 58.47365555 84.67736601 56.80737305 84.40893555 C39.14425283 81.54853226 39.14425283 81.54853226 33 74 C31.79537109 72.71416016 31.79537109 72.71416016 30.56640625 71.40234375 C13.33740192 50.21033257 2.10194939 27.38808678 0 0 Z " fill="#94CF65" transform="translate(291,118)"/>
<path d="M0 0 C4.59942623 0.25325437 8.04559953 2.63102244 11.8125 5.0625 C12.40998047 5.43955078 13.00746094 5.81660156 13.62304688 6.20507812 C15.08636577 7.12989566 16.54379523 8.06402065 18 9 C17.45318307 12.68232672 16.58241594 15.01887727 14.34765625 17.98828125 C13.55391602 19.04692383 13.55391602 19.04692383 12.74414062 20.12695312 C12.18919922 20.84818359 11.63425781 21.56941406 11.0625 22.3125 C10.23588867 23.42334961 10.23588867 23.42334961 9.39257812 24.55664062 C6.33711948 28.58479693 6.33711948 28.58479693 5 30 C4.34 30 3.68 30 3 30 C2.73823975 30.74548096 2.47647949 31.49096191 2.20678711 32.2590332 C0.98483226 35.03445038 -0.23667408 36.66921285 -2.30859375 38.85546875 C-2.96762695 39.55542969 -3.62666016 40.25539063 -4.30566406 40.9765625 C-5.00916992 41.70617187 -5.71267578 42.43578125 -6.4375 43.1875 C-7.1603418 43.94417969 -7.88318359 44.70085937 -8.62792969 45.48046875 C-30.40572249 68.10071063 -52.4228982 82.33348918 -84 85 C-83.28839233 81.85635166 -82.38003448 79.84004598 -80.4375 77.25 C-79.98246094 76.63640625 -79.52742188 76.0228125 -79.05859375 75.390625 C-78.53458984 74.70226562 -78.53458984 74.70226562 -78 74 C-77.67 74.66 -77.34 75.32 -77 76 C-77.495 76.99 -77.495 76.99 -78 78 C-73.35807052 75.86457241 -69.41233058 73.23852296 -65.4375 70.0625 C-64.53112793 69.34441162 -64.53112793 69.34441162 -63.60644531 68.61181641 C-57.63031134 63.81317681 -52.04429055 58.63355076 -46.47558594 53.37402344 C-44.31915546 51.36601703 -42.09367596 49.43871685 -39.875 47.5 C-26.9603275 35.90400556 -16.36568796 22.10716337 -6.34033203 8.01708984 C-5.80649902 7.26766113 -5.27266602 6.51823242 -4.72265625 5.74609375 C-4.24578369 5.07247803 -3.76891113 4.3988623 -3.27758789 3.70483398 C-2 2 -2 2 0 0 Z " fill="#2B9E78" transform="translate(480,436)"/>
<path d="M0 0 C3.54716481 1.62156105 6.57506545 3.74370133 9.75 6 C16.00751595 10.39288904 22.429395 14.47099063 28.9375 18.48046875 C31.52372783 20.07420716 34.08476135 21.69728958 36.625 23.36328125 C45.0489804 28.84619861 53.78197164 33.66188108 62.6875 38.3125 C64.36162964 39.19276855 64.36162964 39.19276855 66.06958008 40.09082031 C73.55680049 43.95042815 81.08084458 47.13784096 89 50 C89.66 49.01 90.32 48.02 91 47 C90.50806087 50.85352322 89.89067345 54.59296125 89 58.375 C87.95616106 62.9008987 87.44017901 67.37812035 87 72 C86.67 72 86.34 72 86 72 C86 70.35 86 68.7 86 67 C85.113125 66.9175 84.22625 66.835 83.3125 66.75 C63.76105524 63.9232851 43.32799599 54.59346499 25.92578125 45.3203125 C22.92732346 43.72578276 22.92732346 43.72578276 19 44 C0 6.54913295 0 6.54913295 0 0 Z " fill="#0C8E7D" transform="translate(397,219)"/>
<path d="M0 0 C4.04420651 1.77945087 7.46078487 4.39529673 11 7 C10.21625 7.86625 9.4325 8.7325 8.625 9.625 C6.1120149 12.54217152 3.85913678 15.5768301 1.66210938 18.73803711 C-4.3260613 27.35379225 -10.99235802 35.20110475 -18 43 C-18.50821289 43.57137695 -19.01642578 44.14275391 -19.54003906 44.73144531 C-33.04094463 59.88588199 -48.65366958 75.34822248 -66 86 C-66.99 86 -67.98 86 -69 86 C-67.67645265 80.10906673 -65.31563447 76.00214296 -61.8125 71.125 C-61.31637207 70.42101074 -60.82024414 69.71702148 -60.30908203 68.99169922 C-51.35725934 56.36359919 -41.52514661 45.23125751 -30.08203125 34.8203125 C-21.24220504 26.76941991 -13.51968475 17.9991483 -6.125 8.625 C-5.63604248 8.00544434 -5.14708496 7.38588867 -4.64331055 6.74755859 C-2.08881111 3.52625436 -2.08881111 3.52625436 0 0 Z " fill="#17735A" transform="translate(471,428)"/>
<path d="M0 0 C4.67263621 0.63388476 8.5681195 2.56760681 12.75 4.625 C29.91658377 12.86950223 47.39476143 19.73846491 66 24 C66.17117803 29.04975197 66.07936893 32.32551315 64 37 C53.82255683 35.55152494 43.88540851 33.60941975 33.9375 31 C32.98738037 30.7510498 32.03726074 30.50209961 31.05834961 30.24560547 C29.23197828 29.75594363 27.40908646 29.25307602 25.59033203 28.73583984 C23.89602329 28.2545348 22.19367193 27.80049131 20.48388672 27.37744141 C15.56200303 26.02607767 12.9457842 24.61050702 10.26147461 20.21386719 C9.92768799 19.60704102 9.59390137 19.00021484 9.25 18.375 C8.88076416 17.75270508 8.51152832 17.13041016 8.13110352 16.48925781 C7.06157805 14.67296726 6.02897195 12.83947414 5 11 C4.17048828 9.58847656 4.17048828 9.58847656 3.32421875 8.1484375 C0 2.39894366 0 2.39894366 0 0 Z " fill="#006C61" transform="translate(417,262)"/>
<path d="M0 0 C7.80022477 -0.31837652 15.29261376 0.89894482 23 2 C23 9.92 23 17.84 23 26 C16.28640777 20.40533981 16.28640777 20.40533981 13.75 17.375 C9.94733899 12.89725984 5.9515232 8.61131693 1.94140625 4.3203125 C0 2 0 2 0 0 Z " fill="#00695F" transform="translate(456,319)"/>
<path d="M0 0 C0 5.28 0 10.56 0 16 C-6.78466742 10.34611048 -6.78466742 10.34611048 -9.8125 6.8125 C-10.39644531 6.13832031 -10.98039062 5.46414063 -11.58203125 4.76953125 C-13 3 -13 3 -14 1 C-11.85420251 0.83287252 -9.70836101 0.66631 -7.5625 0.5 C-5.77005859 0.36078125 -5.77005859 0.36078125 -3.94140625 0.21875 C-1 0 -1 0 0 0 Z " fill="#048985" transform="translate(479,329)"/>
<path d="M0 0 C1.09501831 0.21148682 1.09501831 0.21148682 2.2121582 0.42724609 C5.57882143 1.0771071 8.94565944 1.72605834 12.3125 2.375 C14.03436523 2.70757812 14.03436523 2.70757812 15.79101562 3.046875 C22.85325468 4.40730632 29.92083606 5.73050884 37 7 C35.68 7.33 34.36 7.66 33 8 C33 8.66 33 9.32 33 10 C22.85479051 7.71580912 12.89157718 5.23411567 3 2 C2.67 2.66 2.34 3.32 2 4 C1.34 2.68 0.68 1.36 0 0 Z " fill="#5AF3EC" transform="translate(222,176)"/>
<path d="M0 0 C4.34263862 -0.16702456 7.20960634 -0.12999997 11 2 C10.40400435 4.68954383 9.79849172 7.37635823 9.1875 10.0625 C9.02185547 10.81466797 8.85621094 11.56683594 8.68554688 12.34179688 C7.57560546 17.17946606 6.08788622 21.49519105 4 26 C3 24 3 24 3.55859375 21.8359375 C4.77929688 18.41796875 4.77929688 18.41796875 6 15 C1.38 15 -3.24 15 -8 15 C-8 14.67 -8 14.34 -8 14 C-3.38 13.67 1.24 13.34 6 13 C8.20768815 7.69542963 8.20768815 7.69542963 7 3 C4.66682784 2.22227595 2.38564077 1.57584432 0 1 C0 0.67 0 0.34 0 0 Z " fill="#2759A1" transform="translate(631,426)"/>
<path d="M0 0 C3.97007894 3.81040483 7.4230115 7.85673832 10.8125 12.1875 C11.31458984 12.81591797 11.81667969 13.44433594 12.33398438 14.09179688 C16 18.75536777 16 18.75536777 16 21 C14.2265625 20.84375 14.2265625 20.84375 12 20 C10.1484375 17.53125 10.1484375 17.53125 8.375 14.5 C6.3230281 10.58654361 6.3230281 10.58654361 3 8 C2.67 8.99 2.34 9.98 2 11 C0.80712589 7.12315913 0 4.08378077 0 0 Z " fill="#60F3EB" transform="translate(466,113)"/>
<path d="M0 0 C0.33 0.66 0.66 1.32 1 2 C0.67 2.66 0.34 3.32 0 4 C1.65 3.67 3.3 3.34 5 3 C3 6 3 6 1 6.4375 C-1.2074709 6.81270124 -1.2074709 6.81270124 -2.25 9.0625 C-2.4975 9.701875 -2.745 10.34125 -3 11 C-3.99 11 -4.98 11 -6 11 C-5.39305845 7.84669446 -4.3583335 5.81111133 -2.4375 3.25 C-1.98246094 2.63640625 -1.52742188 2.0228125 -1.05859375 1.390625 C-0.70925781 0.93171875 -0.35992187 0.4728125 0 0 Z " fill="#5BA36B" transform="translate(402,510)"/>
<path d="M0 0 C0.66 0.33 1.32 0.66 2 1 C1.67 1.33 1.34 1.66 1 2 C4.63 2 8.26 2 12 2 C12 2.33 12 2.66 12 3 C8.37 3.66 4.74 4.32 1 5 C1 5.66 1 6.32 1 7 C-1.97 6.505 -1.97 6.505 -5 6 C-3.86695008 2.60085025 -2.87481525 1.94745549 0 0 Z " fill="#86C165" transform="translate(199,501)"/>
<path d="M0 0 C0.99 0.495 0.99 0.495 2 1 C2.80697995 3.44155613 3.49677391 5.82519005 4.125 8.3125 C4.30675781 8.98990234 4.48851562 9.66730469 4.67578125 10.36523438 C5.54861064 13.72201807 6 16.50580142 6 20 C2.83884224 18.63016497 2.0072908 18.0109362 0 15 C0.99 15.33 1.98 15.66 3 16 C2.68806536 14.27073126 2.37542638 12.54158956 2.0625 10.8125 C1.80146484 9.36810547 1.80146484 9.36810547 1.53515625 7.89453125 C1.0476265 5.25760028 0.53328895 2.6280095 0 0 Z " fill="#8847B7" transform="translate(725,440)"/>
<path d="M0 0 C-0.33 0.33 -0.66 0.66 -1 1 C0.65 1.33 2.3 1.66 4 2 C4 2.33 4 2.66 4 3 C0.37 3 -3.26 3 -7 3 C-7 3.66 -7 4.32 -7 5 C-7.99 4.67 -8.98 4.34 -10 4 C-10 3.34 -10 2.68 -10 2 C-8.71211992 1.46987262 -7.41953322 0.9511671 -6.125 0.4375 C-5.40570313 0.14746094 -4.68640625 -0.14257812 -3.9453125 -0.44140625 C-2 -1 -2 -1 0 0 Z " fill="#A1D062" transform="translate(103,437)"/>
<path d="M0 0 C-0.33 1.65 -0.66 3.3 -1 5 C-1.66 4.34 -2.32 3.68 -3 3 C-4.93257855 2.63168919 -4.93257855 2.63168919 -7.1328125 2.5859375 C-7.93847656 2.54726563 -8.74414062 2.50859375 -9.57421875 2.46875 C-10.41597656 2.4378125 -11.25773438 2.406875 -12.125 2.375 C-12.97449219 2.33632813 -13.82398438 2.29765625 -14.69921875 2.2578125 C-16.79911684 2.16343506 -18.89952891 2.08062414 -21 2 C-21 1.67 -21 1.34 -21 1 C-17.87504511 0.83248032 -14.75002908 0.66612942 -11.625 0.5 C-10.73554687 0.45230469 -9.84609375 0.40460938 -8.9296875 0.35546875 C-7.65351562 0.28779297 -7.65351562 0.28779297 -6.3515625 0.21875 C-5.56604004 0.17685547 -4.78051758 0.13496094 -3.97119141 0.09179688 C-2.64854076 0.03020205 -1.32408408 0 0 0 Z " fill="#5337A2" transform="translate(624,475)"/>
<path d="M0 0 C-0.825 0.45375 -1.65 0.9075 -2.5 1.375 C-3.7375 2.179375 -3.7375 2.179375 -5 3 C-5 3.66 -5 4.32 -5 5 C-6.65 5 -8.3 5 -10 5 C-9.375 3.125 -9.375 3.125 -8 1 C-2.66666667 -1.33333333 -2.66666667 -1.33333333 0 0 Z " fill="#63AD64" transform="translate(322,517)"/>
<path d="M0 0 C2.475 0.495 2.475 0.495 5 1 C5 1.66 5 2.32 5 3 C5.78375 3.144375 6.5675 3.28875 7.375 3.4375 C10 4 10 4 12 5 C12 5.66 12 6.32 12 7 C7.0682659 6.55166054 3.6807076 4.13973905 0 1 C0 0.67 0 0.34 0 0 Z " fill="#44CBAC" transform="translate(289,226)"/>
<path d="M0 0 C4.9723422 1.49170266 9.41845739 3.60457417 14 6 C11 7 11 7 7.5625 5.8125 C4.30710329 4.15624553 2.35734265 2.73451747 0 0 Z " fill="#3FD2BD" transform="translate(306,235)"/>
<path d="M0 0 C0.33 0 0.66 0 1 0 C1.375 2.75 1.375 2.75 1 6 C-2 8.375 -2 8.375 -5 10 C-3.66654496 6.40992874 -2.1056769 3.20429093 0 0 Z " fill="#EF60C1" transform="translate(422,586)"/>
<path d="M0 0 C3.60654039 2.40436026 3.85452932 3.94679607 5 8 C4.34 8 3.68 8 3 8 C2.67 8.99 2.34 9.98 2 11 C0.80712589 7.12315913 0 4.08378077 0 0 Z " fill="#52E9D8" transform="translate(466,113)"/>
<path d="M0 0 C0.66 0.99 1.32 1.98 2 3 C-1.3 3 -4.6 3 -8 3 C-8 2.34 -8 1.68 -8 1 C-5.21136993 -0.39431504 -3.07921132 -0.25660094 0 0 Z " fill="#BBDB5A" transform="translate(62,333)"/>
<path d="M0 0 C4.875 2.75 4.875 2.75 6 5 C5.34 5 4.68 5 4 5 C3.67 5.66 3.34 6.32 3 7 C2.34 6.34 1.68 5.68 1 5 C0.67 5 0.34 5 0 5 C0 3.35 0 1.7 0 0 Z " fill="#B7D85E" transform="translate(344,67)"/>
<path d="M0 0 C1.98 0.99 3.96 1.98 6 3 C5.01 4.485 5.01 4.485 4 6 C2.68 5.34 1.36 4.68 0 4 C0 2.68 0 1.36 0 0 Z " fill="#C5E161" transform="translate(291,118)"/>
</svg>
